G04 #@! TF.GenerationSoftware,KiCad,Pcbnew,(6.0.9)*
G04 #@! TF.CreationDate,2022-12-25T16:52:33+09:00*
G04 #@! TF.ProjectId,musicboxmod,6d757369-6362-46f7-986d-6f642e6b6963,rev?*
G04 #@! TF.SameCoordinates,PX791ddc0PY791ddc0*
G04 #@! TF.FileFunction,Legend,Top*
G04 #@! TF.FilePolarity,Positive*
%FSLAX46Y46*%
G04 Gerber Fmt 4.6, Leading zero omitted, Abs format (unit mm)*
G04 Created by KiCad (PCBNEW (6.0.9)) date 2022-12-25 16:52:33*
%MOMM*%
%LPD*%
G01*
G04 APERTURE LIST*
G04 Aperture macros list*
%AMRoundRect*
0 Rectangle with rounded corners*
0 $1 Rounding radius*
0 $2 $3 $4 $5 $6 $7 $8 $9 X,Y pos of 4 corners*
0 Add a 4 corners polygon primitive as box body*
4,1,4,$2,$3,$4,$5,$6,$7,$8,$9,$2,$3,0*
0 Add four circle primitives for the rounded corners*
1,1,$1+$1,$2,$3*
1,1,$1+$1,$4,$5*
1,1,$1+$1,$6,$7*
1,1,$1+$1,$8,$9*
0 Add four rect primitives between the rounded corners*
20,1,$1+$1,$2,$3,$4,$5,0*
20,1,$1+$1,$4,$5,$6,$7,0*
20,1,$1+$1,$6,$7,$8,$9,0*
20,1,$1+$1,$8,$9,$2,$3,0*%
G04 Aperture macros list end*
%ADD10C,0.120000*%
%ADD11C,0.150000*%
%ADD12C,1.800000*%
%ADD13RoundRect,0.450000X0.450000X0.450000X-0.450000X0.450000X-0.450000X-0.450000X0.450000X-0.450000X0*%
%ADD14R,1.700000X1.700000*%
%ADD15O,1.700000X1.700000*%
%ADD16C,1.600000*%
%ADD17R,1.600000X1.600000*%
%ADD18R,1.500000X1.500000*%
%ADD19O,1.500000X1.500000*%
%ADD20R,1.800000X1.800000*%
%ADD21RoundRect,0.250000X0.600000X0.600000X-0.600000X0.600000X-0.600000X-0.600000X0.600000X-0.600000X0*%
%ADD22C,1.700000*%
%ADD23R,1.300000X1.300000*%
%ADD24C,1.300000*%
%ADD25C,1.400000*%
%ADD26O,1.400000X1.400000*%
%ADD27O,1.600000X1.600000*%
%ADD28RoundRect,0.249630X0.535370X-0.895370X0.535370X0.895370X-0.535370X0.895370X-0.535370X-0.895370X0*%
%ADD29O,1.570000X2.290000*%
%ADD30C,1.440000*%
%ADD31O,1.800000X2.800000*%
G04 APERTURE END LIST*
D10*
X8255000Y91440000D02*
X8255000Y92710000D01*
X8255000Y80645000D02*
X8255000Y91440000D01*
X6350000Y80645000D02*
X8255000Y80645000D01*
X6350000Y72390000D02*
X6350000Y80645000D01*
X8000000Y30000000D02*
X11000000Y30000000D01*
X21590000Y92710000D02*
X21590000Y72390000D01*
X21590000Y72390000D02*
X20320000Y72390000D01*
X11000000Y27000000D02*
X14000000Y30000000D01*
X13970000Y92710000D02*
X13970000Y72390000D01*
X5000000Y27000000D02*
X7000000Y30000000D01*
X15000000Y26000000D02*
X15000000Y31000000D01*
X7000000Y30000000D02*
X7000000Y27000000D01*
X8000000Y27000000D02*
X8000000Y30000000D01*
X21590000Y95250000D02*
X16510000Y95250000D01*
X3000000Y27000000D02*
X5000000Y30000000D01*
X2000000Y31000000D02*
X2000000Y26000000D01*
X2000000Y26000000D02*
X15000000Y26000000D01*
X5000000Y30000000D02*
X5000000Y27000000D01*
X15000000Y31000000D02*
X2000000Y31000000D01*
X6350000Y95250000D02*
X11430000Y95250000D01*
X6350000Y92710000D02*
X6350000Y95250000D01*
X7000000Y27000000D02*
X8000000Y27000000D01*
X7620000Y72390000D02*
X6350000Y72390000D01*
X21590000Y92710000D02*
X21590000Y95250000D01*
X11000000Y30000000D02*
X11000000Y27000000D01*
X21590000Y92710000D02*
X6350000Y92710000D01*
D11*
X42632380Y85121905D02*
X43632380Y85455239D01*
X42632380Y85788572D01*
X43632380Y86550477D02*
X42632380Y86550477D01*
X43584761Y86550477D02*
X43632380Y86455239D01*
X43632380Y86264762D01*
X43584761Y86169524D01*
X43537142Y86121905D01*
X43441904Y86074286D01*
X43156190Y86074286D01*
X43060952Y86121905D01*
X43013333Y86169524D01*
X42965714Y86264762D01*
X42965714Y86455239D01*
X43013333Y86550477D01*
X43632380Y87455239D02*
X42632380Y87455239D01*
X43584761Y87455239D02*
X43632380Y87360000D01*
X43632380Y87169524D01*
X43584761Y87074286D01*
X43537142Y87026667D01*
X43441904Y86979048D01*
X43156190Y86979048D01*
X43060952Y87026667D01*
X43013333Y87074286D01*
X42965714Y87169524D01*
X42965714Y87360000D01*
X43013333Y87455239D01*
X42632380Y92741905D02*
X43632380Y93075239D01*
X42632380Y93408572D01*
X43632380Y94170477D02*
X42632380Y94170477D01*
X43584761Y94170477D02*
X43632380Y94075239D01*
X43632380Y93884762D01*
X43584761Y93789524D01*
X43537142Y93741905D01*
X43441904Y93694286D01*
X43156190Y93694286D01*
X43060952Y93741905D01*
X43013333Y93789524D01*
X42965714Y93884762D01*
X42965714Y94075239D01*
X43013333Y94170477D01*
X43632380Y95075239D02*
X42632380Y95075239D01*
X43584761Y95075239D02*
X43632380Y94980000D01*
X43632380Y94789524D01*
X43584761Y94694286D01*
X43537142Y94646667D01*
X43441904Y94599048D01*
X43156190Y94599048D01*
X43060952Y94646667D01*
X43013333Y94694286D01*
X42965714Y94789524D01*
X42965714Y94980000D01*
X43013333Y95075239D01*
X30180595Y95602620D02*
X30180595Y96602620D01*
X30513928Y95888334D01*
X30847261Y96602620D01*
X30847261Y95602620D01*
X31275833Y95888334D02*
X31752023Y95888334D01*
X31180595Y95602620D02*
X31513928Y96602620D01*
X31847261Y95602620D01*
X32180595Y95602620D02*
X32180595Y96602620D01*
X32752023Y95602620D01*
X32752023Y96602620D01*
X33228214Y96602620D02*
X33228214Y95793096D01*
X33275833Y95697858D01*
X33323452Y95650239D01*
X33418690Y95602620D01*
X33609166Y95602620D01*
X33704404Y95650239D01*
X33752023Y95697858D01*
X33799642Y95793096D01*
X33799642Y96602620D01*
X34228214Y95888334D02*
X34704404Y95888334D01*
X34132976Y95602620D02*
X34466309Y96602620D01*
X34799642Y95602620D01*
X35609166Y95602620D02*
X35132976Y95602620D01*
X35132976Y96602620D01*
X30704404Y94945000D02*
X30609166Y94992620D01*
X30466309Y94992620D01*
X30323452Y94945000D01*
X30228214Y94849762D01*
X30180595Y94754524D01*
X30132976Y94564048D01*
X30132976Y94421191D01*
X30180595Y94230715D01*
X30228214Y94135477D01*
X30323452Y94040239D01*
X30466309Y93992620D01*
X30561547Y93992620D01*
X30704404Y94040239D01*
X30752023Y94087858D01*
X30752023Y94421191D01*
X30561547Y94421191D01*
X31132976Y94278334D02*
X31609166Y94278334D01*
X31037738Y93992620D02*
X31371071Y94992620D01*
X31704404Y93992620D01*
X31894880Y94992620D02*
X32466309Y94992620D01*
X32180595Y93992620D02*
X32180595Y94992620D01*
X32799642Y94516429D02*
X33132976Y94516429D01*
X33275833Y93992620D02*
X32799642Y93992620D01*
X32799642Y94992620D01*
X33275833Y94992620D01*
X34418690Y94040239D02*
X34561547Y93992620D01*
X34799642Y93992620D01*
X34894880Y94040239D01*
X34942500Y94087858D01*
X34990119Y94183096D01*
X34990119Y94278334D01*
X34942500Y94373572D01*
X34894880Y94421191D01*
X34799642Y94468810D01*
X34609166Y94516429D01*
X34513928Y94564048D01*
X34466309Y94611667D01*
X34418690Y94706905D01*
X34418690Y94802143D01*
X34466309Y94897381D01*
X34513928Y94945000D01*
X34609166Y94992620D01*
X34847261Y94992620D01*
X34990119Y94945000D01*
X35323452Y94992620D02*
X35561547Y93992620D01*
X35752023Y94706905D01*
X35942500Y93992620D01*
X36180595Y94992620D01*
X5969523Y14835239D02*
X6112380Y14787620D01*
X6350476Y14787620D01*
X6445714Y14835239D01*
X6493333Y14882858D01*
X6540952Y14978096D01*
X6540952Y15073334D01*
X6493333Y15168572D01*
X6445714Y15216191D01*
X6350476Y15263810D01*
X6160000Y15311429D01*
X6064761Y15359048D01*
X6017142Y15406667D01*
X5969523Y15501905D01*
X5969523Y15597143D01*
X6017142Y15692381D01*
X6064761Y15740000D01*
X6160000Y15787620D01*
X6398095Y15787620D01*
X6540952Y15740000D01*
X6969523Y14787620D02*
X6969523Y15787620D01*
X7969523Y15740000D02*
X7874285Y15787620D01*
X7731428Y15787620D01*
X7588571Y15740000D01*
X7493333Y15644762D01*
X7445714Y15549524D01*
X7398095Y15359048D01*
X7398095Y15216191D01*
X7445714Y15025715D01*
X7493333Y14930477D01*
X7588571Y14835239D01*
X7731428Y14787620D01*
X7826666Y14787620D01*
X7969523Y14835239D01*
X8017142Y14882858D01*
X8017142Y15216191D01*
X7826666Y15216191D01*
X8445714Y14787620D02*
X8445714Y15787620D01*
X9017142Y14787620D01*
X9017142Y15787620D01*
X9445714Y15073334D02*
X9921904Y15073334D01*
X9350476Y14787620D02*
X9683809Y15787620D01*
X10017142Y14787620D01*
X10826666Y14787620D02*
X10350476Y14787620D01*
X10350476Y15787620D01*
X12112380Y15787620D02*
X12302857Y15787620D01*
X12398095Y15740000D01*
X12493333Y15644762D01*
X12540952Y15454286D01*
X12540952Y15120953D01*
X12493333Y14930477D01*
X12398095Y14835239D01*
X12302857Y14787620D01*
X12112380Y14787620D01*
X12017142Y14835239D01*
X11921904Y14930477D01*
X11874285Y15120953D01*
X11874285Y15454286D01*
X11921904Y15644762D01*
X12017142Y15740000D01*
X12112380Y15787620D01*
X12969523Y15787620D02*
X12969523Y14978096D01*
X13017142Y14882858D01*
X13064761Y14835239D01*
X13160000Y14787620D01*
X13350476Y14787620D01*
X13445714Y14835239D01*
X13493333Y14882858D01*
X13540952Y14978096D01*
X13540952Y15787620D01*
X13874285Y15787620D02*
X14445714Y15787620D01*
X14160000Y14787620D02*
X14160000Y15787620D01*
X9287142Y43045000D02*
X9191904Y43092620D01*
X9049047Y43092620D01*
X8906190Y43045000D01*
X8810952Y42949762D01*
X8763333Y42854524D01*
X8715714Y42664048D01*
X8715714Y42521191D01*
X8763333Y42330715D01*
X8810952Y42235477D01*
X8906190Y42140239D01*
X9049047Y42092620D01*
X9144285Y42092620D01*
X9287142Y42140239D01*
X9334761Y42187858D01*
X9334761Y42521191D01*
X9144285Y42521191D01*
X9715714Y42378334D02*
X10191904Y42378334D01*
X9620476Y42092620D02*
X9953809Y43092620D01*
X10287142Y42092620D01*
X10477619Y43092620D02*
X11049047Y43092620D01*
X10763333Y42092620D02*
X10763333Y43092620D01*
X11382380Y42616429D02*
X11715714Y42616429D01*
X11858571Y42092620D02*
X11382380Y42092620D01*
X11382380Y43092620D01*
X11858571Y43092620D01*
X13049047Y42092620D02*
X13049047Y43092620D01*
X13525238Y42092620D02*
X13525238Y43092620D01*
X14096666Y42092620D01*
X14096666Y43092620D01*
X38552380Y89630477D02*
X37552380Y89630477D01*
X38266666Y89963810D01*
X37552380Y90297143D01*
X38552380Y90297143D01*
X37552380Y90963810D02*
X37552380Y91154286D01*
X37600000Y91249524D01*
X37695238Y91344762D01*
X37885714Y91392381D01*
X38219047Y91392381D01*
X38409523Y91344762D01*
X38504761Y91249524D01*
X38552380Y91154286D01*
X38552380Y90963810D01*
X38504761Y90868572D01*
X38409523Y90773334D01*
X38219047Y90725715D01*
X37885714Y90725715D01*
X37695238Y90773334D01*
X37600000Y90868572D01*
X37552380Y90963810D01*
X38552380Y91820953D02*
X37552380Y91820953D01*
X37552380Y92059048D01*
X37600000Y92201905D01*
X37695238Y92297143D01*
X37790476Y92344762D01*
X37980952Y92392381D01*
X38123809Y92392381D01*
X38314285Y92344762D01*
X38409523Y92297143D01*
X38504761Y92201905D01*
X38552380Y92059048D01*
X38552380Y91820953D01*
X38028571Y92820953D02*
X38028571Y93154286D01*
X38552380Y93297143D02*
X38552380Y92820953D01*
X37552380Y92820953D01*
X37552380Y93297143D01*
X2309761Y91789524D02*
X2357380Y91932381D01*
X2357380Y92170477D01*
X2309761Y92265715D01*
X2262142Y92313334D01*
X2166904Y92360953D01*
X2071666Y92360953D01*
X1976428Y92313334D01*
X1928809Y92265715D01*
X1881190Y92170477D01*
X1833571Y91980000D01*
X1785952Y91884762D01*
X1738333Y91837143D01*
X1643095Y91789524D01*
X1547857Y91789524D01*
X1452619Y91837143D01*
X1405000Y91884762D01*
X1357380Y91980000D01*
X1357380Y92218096D01*
X1405000Y92360953D01*
X2357380Y92789524D02*
X1357380Y92789524D01*
X1357380Y93170477D01*
X1405000Y93265715D01*
X1452619Y93313334D01*
X1547857Y93360953D01*
X1690714Y93360953D01*
X1785952Y93313334D01*
X1833571Y93265715D01*
X1881190Y93170477D01*
X1881190Y92789524D01*
X1833571Y93789524D02*
X1833571Y94122858D01*
X2357380Y94265715D02*
X2357380Y93789524D01*
X1357380Y93789524D01*
X1357380Y94265715D01*
X1833571Y94694286D02*
X1833571Y95027620D01*
X2357380Y95170477D02*
X2357380Y94694286D01*
X1357380Y94694286D01*
X1357380Y95170477D01*
X2357380Y95599048D02*
X1357380Y95599048D01*
X1357380Y95837143D01*
X1405000Y95980000D01*
X1500238Y96075239D01*
X1595476Y96122858D01*
X1785952Y96170477D01*
X1928809Y96170477D01*
X2119285Y96122858D01*
X2214523Y96075239D01*
X2309761Y95980000D01*
X2357380Y95837143D01*
X2357380Y95599048D01*
X12779523Y96432620D02*
X13112857Y95432620D01*
X13446190Y96432620D01*
X14208095Y95480239D02*
X14112857Y95432620D01*
X13922380Y95432620D01*
X13827142Y95480239D01*
X13779523Y95527858D01*
X13731904Y95623096D01*
X13731904Y95908810D01*
X13779523Y96004048D01*
X13827142Y96051667D01*
X13922380Y96099286D01*
X14112857Y96099286D01*
X14208095Y96051667D01*
X15065238Y95480239D02*
X14970000Y95432620D01*
X14779523Y95432620D01*
X14684285Y95480239D01*
X14636666Y95527858D01*
X14589047Y95623096D01*
X14589047Y95908810D01*
X14636666Y96004048D01*
X14684285Y96051667D01*
X14779523Y96099286D01*
X14970000Y96099286D01*
X15065238Y96051667D01*
X9112857Y71302620D02*
X9112857Y72302620D01*
X9493809Y72302620D01*
X9589047Y72255000D01*
X9636666Y72207381D01*
X9684285Y72112143D01*
X9684285Y71969286D01*
X9636666Y71874048D01*
X9589047Y71826429D01*
X9493809Y71778810D01*
X9112857Y71778810D01*
X10065238Y71588334D02*
X10541428Y71588334D01*
X9970000Y71302620D02*
X10303333Y72302620D01*
X10636666Y71302620D01*
X10827142Y72302620D02*
X11398571Y72302620D01*
X11112857Y71302620D02*
X11112857Y72302620D01*
X12303333Y71397858D02*
X12255714Y71350239D01*
X12112857Y71302620D01*
X12017619Y71302620D01*
X11874761Y71350239D01*
X11779523Y71445477D01*
X11731904Y71540715D01*
X11684285Y71731191D01*
X11684285Y71874048D01*
X11731904Y72064524D01*
X11779523Y72159762D01*
X11874761Y72255000D01*
X12017619Y72302620D01*
X12112857Y72302620D01*
X12255714Y72255000D01*
X12303333Y72207381D01*
X12731904Y71302620D02*
X12731904Y72302620D01*
X12731904Y71826429D02*
X13303333Y71826429D01*
X13303333Y71302620D02*
X13303333Y72302620D01*
X14541428Y71302620D02*
X14541428Y72302620D01*
X14541428Y71826429D02*
X15112857Y71826429D01*
X15112857Y71302620D02*
X15112857Y72302620D01*
X15779523Y72302620D02*
X15970000Y72302620D01*
X16065238Y72255000D01*
X16160476Y72159762D01*
X16208095Y71969286D01*
X16208095Y71635953D01*
X16160476Y71445477D01*
X16065238Y71350239D01*
X15970000Y71302620D01*
X15779523Y71302620D01*
X15684285Y71350239D01*
X15589047Y71445477D01*
X15541428Y71635953D01*
X15541428Y71969286D01*
X15589047Y72159762D01*
X15684285Y72255000D01*
X15779523Y72302620D01*
X17112857Y71302620D02*
X16636666Y71302620D01*
X16636666Y72302620D01*
X17446190Y71826429D02*
X17779523Y71826429D01*
X17922380Y71302620D02*
X17446190Y71302620D01*
X17446190Y72302620D01*
X17922380Y72302620D01*
X18303333Y71350239D02*
X18446190Y71302620D01*
X18684285Y71302620D01*
X18779523Y71350239D01*
X18827142Y71397858D01*
X18874761Y71493096D01*
X18874761Y71588334D01*
X18827142Y71683572D01*
X18779523Y71731191D01*
X18684285Y71778810D01*
X18493809Y71826429D01*
X18398571Y71874048D01*
X18350952Y71921667D01*
X18303333Y72016905D01*
X18303333Y72112143D01*
X18350952Y72207381D01*
X18398571Y72255000D01*
X18493809Y72302620D01*
X18731904Y72302620D01*
X18874761Y72255000D01*
X15605476Y2405000D02*
X15510238Y2452620D01*
X15367380Y2452620D01*
X15224523Y2405000D01*
X15129285Y2309762D01*
X15081666Y2214524D01*
X15034047Y2024048D01*
X15034047Y1881191D01*
X15081666Y1690715D01*
X15129285Y1595477D01*
X15224523Y1500239D01*
X15367380Y1452620D01*
X15462619Y1452620D01*
X15605476Y1500239D01*
X15653095Y1547858D01*
X15653095Y1881191D01*
X15462619Y1881191D01*
X16034047Y1738334D02*
X16510238Y1738334D01*
X15938809Y1452620D02*
X16272142Y2452620D01*
X16605476Y1452620D01*
X16795952Y2452620D02*
X17367380Y2452620D01*
X17081666Y1452620D02*
X17081666Y2452620D01*
X17700714Y1976429D02*
X18034047Y1976429D01*
X18176904Y1452620D02*
X17700714Y1452620D01*
X17700714Y2452620D01*
X18176904Y2452620D01*
X19557857Y2452620D02*
X19748333Y2452620D01*
X19843571Y2405000D01*
X19938809Y2309762D01*
X19986428Y2119286D01*
X19986428Y1785953D01*
X19938809Y1595477D01*
X19843571Y1500239D01*
X19748333Y1452620D01*
X19557857Y1452620D01*
X19462619Y1500239D01*
X19367380Y1595477D01*
X19319761Y1785953D01*
X19319761Y2119286D01*
X19367380Y2309762D01*
X19462619Y2405000D01*
X19557857Y2452620D01*
X20415000Y2452620D02*
X20415000Y1643096D01*
X20462619Y1547858D01*
X20510238Y1500239D01*
X20605476Y1452620D01*
X20795952Y1452620D01*
X20891190Y1500239D01*
X20938809Y1547858D01*
X20986428Y1643096D01*
X20986428Y2452620D01*
X21319761Y2452620D02*
X21891190Y2452620D01*
X21605476Y1452620D02*
X21605476Y2452620D01*
X4047619Y13417620D02*
X4714285Y12417620D01*
X4714285Y13417620D02*
X4047619Y12417620D01*
X5095238Y12798572D02*
X5857142Y12798572D01*
X6333333Y12417620D02*
X6333333Y13417620D01*
X6571428Y13417620D01*
X6714285Y13370000D01*
X6809523Y13274762D01*
X6857142Y13179524D01*
X6904761Y12989048D01*
X6904761Y12846191D01*
X6857142Y12655715D01*
X6809523Y12560477D01*
X6714285Y12465239D01*
X6571428Y12417620D01*
X6333333Y12417620D01*
X7761904Y12417620D02*
X7761904Y12941429D01*
X7714285Y13036667D01*
X7619047Y13084286D01*
X7428571Y13084286D01*
X7333333Y13036667D01*
X7761904Y12465239D02*
X7666666Y12417620D01*
X7428571Y12417620D01*
X7333333Y12465239D01*
X7285714Y12560477D01*
X7285714Y12655715D01*
X7333333Y12750953D01*
X7428571Y12798572D01*
X7666666Y12798572D01*
X7761904Y12846191D01*
X8142857Y13084286D02*
X8380952Y12417620D01*
X8619047Y13084286D02*
X8380952Y12417620D01*
X8285714Y12179524D01*
X8238095Y12131905D01*
X8142857Y12084286D01*
X9666666Y13084286D02*
X9904761Y12417620D01*
X10142857Y13084286D01*
X11047619Y12417620D02*
X10476190Y12417620D01*
X10761904Y12417620D02*
X10761904Y13417620D01*
X10666666Y13274762D01*
X10571428Y13179524D01*
X10476190Y13131905D01*
X11476190Y12512858D02*
X11523809Y12465239D01*
X11476190Y12417620D01*
X11428571Y12465239D01*
X11476190Y12512858D01*
X11476190Y12417620D01*
X12142857Y13417620D02*
X12238095Y13417620D01*
X12333333Y13370000D01*
X12380952Y13322381D01*
X12428571Y13227143D01*
X12476190Y13036667D01*
X12476190Y12798572D01*
X12428571Y12608096D01*
X12380952Y12512858D01*
X12333333Y12465239D01*
X12238095Y12417620D01*
X12142857Y12417620D01*
X12047619Y12465239D01*
X12000000Y12512858D01*
X11952380Y12608096D01*
X11904761Y12798572D01*
X11904761Y13036667D01*
X11952380Y13227143D01*
X12000000Y13322381D01*
X12047619Y13370000D01*
X12142857Y13417620D01*
X12904761Y12512858D02*
X12952380Y12465239D01*
X12904761Y12417620D01*
X12857142Y12465239D01*
X12904761Y12512858D01*
X12904761Y12417620D01*
X13904761Y12417620D02*
X13333333Y12417620D01*
X13619047Y12417620D02*
X13619047Y13417620D01*
X13523809Y13274762D01*
X13428571Y13179524D01*
X13333333Y13131905D01*
X1380952Y10807620D02*
X1380952Y11807620D01*
X1809523Y10807620D02*
X1809523Y11331429D01*
X1761904Y11426667D01*
X1666666Y11474286D01*
X1523809Y11474286D01*
X1428571Y11426667D01*
X1380952Y11379048D01*
X2142857Y11474286D02*
X2523809Y11474286D01*
X2285714Y11807620D02*
X2285714Y10950477D01*
X2333333Y10855239D01*
X2428571Y10807620D01*
X2523809Y10807620D01*
X2714285Y11474286D02*
X3095238Y11474286D01*
X2857142Y11807620D02*
X2857142Y10950477D01*
X2904761Y10855239D01*
X3000000Y10807620D01*
X3095238Y10807620D01*
X3428571Y11474286D02*
X3428571Y10474286D01*
X3428571Y11426667D02*
X3523809Y11474286D01*
X3714285Y11474286D01*
X3809523Y11426667D01*
X3857142Y11379048D01*
X3904761Y11283810D01*
X3904761Y10998096D01*
X3857142Y10902858D01*
X3809523Y10855239D01*
X3714285Y10807620D01*
X3523809Y10807620D01*
X3428571Y10855239D01*
X4285714Y10855239D02*
X4380952Y10807620D01*
X4571428Y10807620D01*
X4666666Y10855239D01*
X4714285Y10950477D01*
X4714285Y10998096D01*
X4666666Y11093334D01*
X4571428Y11140953D01*
X4428571Y11140953D01*
X4333333Y11188572D01*
X4285714Y11283810D01*
X4285714Y11331429D01*
X4333333Y11426667D01*
X4428571Y11474286D01*
X4571428Y11474286D01*
X4666666Y11426667D01*
X5142857Y10902858D02*
X5190476Y10855239D01*
X5142857Y10807620D01*
X5095238Y10855239D01*
X5142857Y10902858D01*
X5142857Y10807620D01*
X5142857Y11426667D02*
X5190476Y11379048D01*
X5142857Y11331429D01*
X5095238Y11379048D01*
X5142857Y11426667D01*
X5142857Y11331429D01*
X6333333Y11855239D02*
X5476190Y10569524D01*
X7380952Y11855239D02*
X6523809Y10569524D01*
X7714285Y10807620D02*
X7714285Y11474286D01*
X7714285Y11379048D02*
X7761904Y11426667D01*
X7857142Y11474286D01*
X8000000Y11474286D01*
X8095238Y11426667D01*
X8142857Y11331429D01*
X8142857Y10807620D01*
X8142857Y11331429D02*
X8190476Y11426667D01*
X8285714Y11474286D01*
X8428571Y11474286D01*
X8523809Y11426667D01*
X8571428Y11331429D01*
X8571428Y10807620D01*
X9428571Y10855239D02*
X9333333Y10807620D01*
X9142857Y10807620D01*
X9047619Y10855239D01*
X9000000Y10950477D01*
X9000000Y11331429D01*
X9047619Y11426667D01*
X9142857Y11474286D01*
X9333333Y11474286D01*
X9428571Y11426667D01*
X9476190Y11331429D01*
X9476190Y11236191D01*
X9000000Y11140953D01*
X9857142Y10855239D02*
X9952380Y10807620D01*
X10142857Y10807620D01*
X10238095Y10855239D01*
X10285714Y10950477D01*
X10285714Y10998096D01*
X10238095Y11093334D01*
X10142857Y11140953D01*
X10000000Y11140953D01*
X9904761Y11188572D01*
X9857142Y11283810D01*
X9857142Y11331429D01*
X9904761Y11426667D01*
X10000000Y11474286D01*
X10142857Y11474286D01*
X10238095Y11426667D01*
X10857142Y10807620D02*
X10761904Y10855239D01*
X10714285Y10902858D01*
X10666666Y10998096D01*
X10666666Y11283810D01*
X10714285Y11379048D01*
X10761904Y11426667D01*
X10857142Y11474286D01*
X11000000Y11474286D01*
X11095238Y11426667D01*
X11142857Y11379048D01*
X11190476Y11283810D01*
X11190476Y10998096D01*
X11142857Y10902858D01*
X11095238Y10855239D01*
X11000000Y10807620D01*
X10857142Y10807620D01*
X11619047Y10902858D02*
X11666666Y10855239D01*
X11619047Y10807620D01*
X11571428Y10855239D01*
X11619047Y10902858D01*
X11619047Y10807620D01*
X11952380Y11474286D02*
X12333333Y11474286D01*
X12095238Y11807620D02*
X12095238Y10950477D01*
X12142857Y10855239D01*
X12238095Y10807620D01*
X12333333Y10807620D01*
X12809523Y10807620D02*
X12714285Y10855239D01*
X12666666Y10902858D01*
X12619047Y10998096D01*
X12619047Y11283810D01*
X12666666Y11379048D01*
X12714285Y11426667D01*
X12809523Y11474286D01*
X12952380Y11474286D01*
X13047619Y11426667D01*
X13095238Y11379048D01*
X13142857Y11283810D01*
X13142857Y10998096D01*
X13095238Y10902858D01*
X13047619Y10855239D01*
X12952380Y10807620D01*
X12809523Y10807620D01*
X13571428Y10807620D02*
X13571428Y11807620D01*
X13666666Y11188572D02*
X13952380Y10807620D01*
X13952380Y11474286D02*
X13571428Y11093334D01*
X14285714Y11474286D02*
X14523809Y10807620D01*
X14761904Y11474286D02*
X14523809Y10807620D01*
X14428571Y10569524D01*
X14380952Y10521905D01*
X14285714Y10474286D01*
X15285714Y10807620D02*
X15190476Y10855239D01*
X15142857Y10902858D01*
X15095238Y10998096D01*
X15095238Y11283810D01*
X15142857Y11379048D01*
X15190476Y11426667D01*
X15285714Y11474286D01*
X15428571Y11474286D01*
X15523809Y11426667D01*
X15571428Y11379048D01*
X15619047Y11283810D01*
X15619047Y10998096D01*
X15571428Y10902858D01*
X15523809Y10855239D01*
X15428571Y10807620D01*
X15285714Y10807620D01*
X16761904Y11855239D02*
X15904761Y10569524D01*
X10803095Y58062858D02*
X10755476Y58015239D01*
X10612619Y57967620D01*
X10517380Y57967620D01*
X10374523Y58015239D01*
X10279285Y58110477D01*
X10231666Y58205715D01*
X10184047Y58396191D01*
X10184047Y58539048D01*
X10231666Y58729524D01*
X10279285Y58824762D01*
X10374523Y58920000D01*
X10517380Y58967620D01*
X10612619Y58967620D01*
X10755476Y58920000D01*
X10803095Y58872381D01*
X11088809Y58967620D02*
X11422142Y57967620D01*
X11755476Y58967620D01*
X12850714Y57967620D02*
X12850714Y58967620D01*
X13326904Y57967620D02*
X13326904Y58967620D01*
X13898333Y57967620D01*
X13898333Y58967620D01*
X38504761Y83129524D02*
X38552380Y83272381D01*
X38552380Y83510477D01*
X38504761Y83605715D01*
X38457142Y83653334D01*
X38361904Y83700953D01*
X38266666Y83700953D01*
X38171428Y83653334D01*
X38123809Y83605715D01*
X38076190Y83510477D01*
X38028571Y83320000D01*
X37980952Y83224762D01*
X37933333Y83177143D01*
X37838095Y83129524D01*
X37742857Y83129524D01*
X37647619Y83177143D01*
X37600000Y83224762D01*
X37552380Y83320000D01*
X37552380Y83558096D01*
X37600000Y83700953D01*
X38552380Y84605715D02*
X38552380Y84129524D01*
X37552380Y84129524D01*
X35544523Y67587858D02*
X35496904Y67540239D01*
X35354047Y67492620D01*
X35258809Y67492620D01*
X35115952Y67540239D01*
X35020714Y67635477D01*
X34973095Y67730715D01*
X34925476Y67921191D01*
X34925476Y68064048D01*
X34973095Y68254524D01*
X35020714Y68349762D01*
X35115952Y68445000D01*
X35258809Y68492620D01*
X35354047Y68492620D01*
X35496904Y68445000D01*
X35544523Y68397381D01*
X35830238Y68492620D02*
X36163571Y67492620D01*
X36496904Y68492620D01*
X37782619Y68492620D02*
X37973095Y68492620D01*
X38068333Y68445000D01*
X38163571Y68349762D01*
X38211190Y68159286D01*
X38211190Y67825953D01*
X38163571Y67635477D01*
X38068333Y67540239D01*
X37973095Y67492620D01*
X37782619Y67492620D01*
X37687380Y67540239D01*
X37592142Y67635477D01*
X37544523Y67825953D01*
X37544523Y68159286D01*
X37592142Y68349762D01*
X37687380Y68445000D01*
X37782619Y68492620D01*
X38973095Y68016429D02*
X38639761Y68016429D01*
X38639761Y67492620D02*
X38639761Y68492620D01*
X39115952Y68492620D01*
X39830238Y68016429D02*
X39496904Y68016429D01*
X39496904Y67492620D02*
X39496904Y68492620D01*
X39973095Y68492620D01*
X40306428Y67540239D02*
X40449285Y67492620D01*
X40687380Y67492620D01*
X40782619Y67540239D01*
X40830238Y67587858D01*
X40877857Y67683096D01*
X40877857Y67778334D01*
X40830238Y67873572D01*
X40782619Y67921191D01*
X40687380Y67968810D01*
X40496904Y68016429D01*
X40401666Y68064048D01*
X40354047Y68111667D01*
X40306428Y68206905D01*
X40306428Y68302143D01*
X40354047Y68397381D01*
X40401666Y68445000D01*
X40496904Y68492620D01*
X40735000Y68492620D01*
X40877857Y68445000D01*
X41306428Y68016429D02*
X41639761Y68016429D01*
X41782619Y67492620D02*
X41306428Y67492620D01*
X41306428Y68492620D01*
X41782619Y68492620D01*
X42068333Y68492620D02*
X42639761Y68492620D01*
X42354047Y67492620D02*
X42354047Y68492620D01*
G04 #@! TO.C,RV2*
X3214761Y79557620D02*
X2881428Y80033810D01*
X2643333Y79557620D02*
X2643333Y80557620D01*
X3024285Y80557620D01*
X3119523Y80510000D01*
X3167142Y80462381D01*
X3214761Y80367143D01*
X3214761Y80224286D01*
X3167142Y80129048D01*
X3119523Y80081429D01*
X3024285Y80033810D01*
X2643333Y80033810D01*
X3500476Y80557620D02*
X3833809Y79557620D01*
X4167142Y80557620D01*
X4452857Y80462381D02*
X4500476Y80510000D01*
X4595714Y80557620D01*
X4833809Y80557620D01*
X4929047Y80510000D01*
X4976666Y80462381D01*
X5024285Y80367143D01*
X5024285Y80271905D01*
X4976666Y80129048D01*
X4405238Y79557620D01*
X5024285Y79557620D01*
G04 #@! TO.C,C1*
X29063333Y50932858D02*
X29015714Y50885239D01*
X28872857Y50837620D01*
X28777619Y50837620D01*
X28634761Y50885239D01*
X28539523Y50980477D01*
X28491904Y51075715D01*
X28444285Y51266191D01*
X28444285Y51409048D01*
X28491904Y51599524D01*
X28539523Y51694762D01*
X28634761Y51790000D01*
X28777619Y51837620D01*
X28872857Y51837620D01*
X29015714Y51790000D01*
X29063333Y51742381D01*
X30015714Y50837620D02*
X29444285Y50837620D01*
X29730000Y50837620D02*
X29730000Y51837620D01*
X29634761Y51694762D01*
X29539523Y51599524D01*
X29444285Y51551905D01*
G04 #@! TO.C,C3*
X34123333Y9802858D02*
X34075714Y9755239D01*
X33932857Y9707620D01*
X33837619Y9707620D01*
X33694761Y9755239D01*
X33599523Y9850477D01*
X33551904Y9945715D01*
X33504285Y10136191D01*
X33504285Y10279048D01*
X33551904Y10469524D01*
X33599523Y10564762D01*
X33694761Y10660000D01*
X33837619Y10707620D01*
X33932857Y10707620D01*
X34075714Y10660000D01*
X34123333Y10612381D01*
X34456666Y10707620D02*
X35075714Y10707620D01*
X34742380Y10326667D01*
X34885238Y10326667D01*
X34980476Y10279048D01*
X35028095Y10231429D01*
X35075714Y10136191D01*
X35075714Y9898096D01*
X35028095Y9802858D01*
X34980476Y9755239D01*
X34885238Y9707620D01*
X34599523Y9707620D01*
X34504285Y9755239D01*
X34456666Y9802858D01*
G04 #@! TO.C,C4*
X43537142Y50633334D02*
X43584761Y50585715D01*
X43632380Y50442858D01*
X43632380Y50347620D01*
X43584761Y50204762D01*
X43489523Y50109524D01*
X43394285Y50061905D01*
X43203809Y50014286D01*
X43060952Y50014286D01*
X42870476Y50061905D01*
X42775238Y50109524D01*
X42680000Y50204762D01*
X42632380Y50347620D01*
X42632380Y50442858D01*
X42680000Y50585715D01*
X42727619Y50633334D01*
X42965714Y51490477D02*
X43632380Y51490477D01*
X42584761Y51252381D02*
X43299047Y51014286D01*
X43299047Y51633334D01*
G04 #@! TO.C,C5*
X22582142Y18903334D02*
X22629761Y18855715D01*
X22677380Y18712858D01*
X22677380Y18617620D01*
X22629761Y18474762D01*
X22534523Y18379524D01*
X22439285Y18331905D01*
X22248809Y18284286D01*
X22105952Y18284286D01*
X21915476Y18331905D01*
X21820238Y18379524D01*
X21725000Y18474762D01*
X21677380Y18617620D01*
X21677380Y18712858D01*
X21725000Y18855715D01*
X21772619Y18903334D01*
X21677380Y19808096D02*
X21677380Y19331905D01*
X22153571Y19284286D01*
X22105952Y19331905D01*
X22058333Y19427143D01*
X22058333Y19665239D01*
X22105952Y19760477D01*
X22153571Y19808096D01*
X22248809Y19855715D01*
X22486904Y19855715D01*
X22582142Y19808096D01*
X22629761Y19760477D01*
X22677380Y19665239D01*
X22677380Y19427143D01*
X22629761Y19331905D01*
X22582142Y19284286D01*
G04 #@! TO.C,C7*
X22058333Y4722858D02*
X22010714Y4675239D01*
X21867857Y4627620D01*
X21772619Y4627620D01*
X21629761Y4675239D01*
X21534523Y4770477D01*
X21486904Y4865715D01*
X21439285Y5056191D01*
X21439285Y5199048D01*
X21486904Y5389524D01*
X21534523Y5484762D01*
X21629761Y5580000D01*
X21772619Y5627620D01*
X21867857Y5627620D01*
X22010714Y5580000D01*
X22058333Y5532381D01*
X22391666Y5627620D02*
X23058333Y5627620D01*
X22629761Y4627620D01*
G04 #@! TO.C,C8*
X23852142Y81113334D02*
X23899761Y81065715D01*
X23947380Y80922858D01*
X23947380Y80827620D01*
X23899761Y80684762D01*
X23804523Y80589524D01*
X23709285Y80541905D01*
X23518809Y80494286D01*
X23375952Y80494286D01*
X23185476Y80541905D01*
X23090238Y80589524D01*
X22995000Y80684762D01*
X22947380Y80827620D01*
X22947380Y80922858D01*
X22995000Y81065715D01*
X23042619Y81113334D01*
X23375952Y81684762D02*
X23328333Y81589524D01*
X23280714Y81541905D01*
X23185476Y81494286D01*
X23137857Y81494286D01*
X23042619Y81541905D01*
X22995000Y81589524D01*
X22947380Y81684762D01*
X22947380Y81875239D01*
X22995000Y81970477D01*
X23042619Y82018096D01*
X23137857Y82065715D01*
X23185476Y82065715D01*
X23280714Y82018096D01*
X23328333Y81970477D01*
X23375952Y81875239D01*
X23375952Y81684762D01*
X23423571Y81589524D01*
X23471190Y81541905D01*
X23566428Y81494286D01*
X23756904Y81494286D01*
X23852142Y81541905D01*
X23899761Y81589524D01*
X23947380Y81684762D01*
X23947380Y81875239D01*
X23899761Y81970477D01*
X23852142Y82018096D01*
X23756904Y82065715D01*
X23566428Y82065715D01*
X23471190Y82018096D01*
X23423571Y81970477D01*
X23375952Y81875239D01*
G04 #@! TO.C,D1*
X28471904Y19867620D02*
X28471904Y20867620D01*
X28710000Y20867620D01*
X28852857Y20820000D01*
X28948095Y20724762D01*
X28995714Y20629524D01*
X29043333Y20439048D01*
X29043333Y20296191D01*
X28995714Y20105715D01*
X28948095Y20010477D01*
X28852857Y19915239D01*
X28710000Y19867620D01*
X28471904Y19867620D01*
X29995714Y19867620D02*
X29424285Y19867620D01*
X29710000Y19867620D02*
X29710000Y20867620D01*
X29614761Y20724762D01*
X29519523Y20629524D01*
X29424285Y20581905D01*
X25138095Y17962620D02*
X25138095Y18962620D01*
X25709523Y17962620D02*
X25280952Y18534048D01*
X25709523Y18962620D02*
X25138095Y18391191D01*
G04 #@! TO.C,D2*
X28471904Y2087620D02*
X28471904Y3087620D01*
X28710000Y3087620D01*
X28852857Y3040000D01*
X28948095Y2944762D01*
X28995714Y2849524D01*
X29043333Y2659048D01*
X29043333Y2516191D01*
X28995714Y2325715D01*
X28948095Y2230477D01*
X28852857Y2135239D01*
X28710000Y2087620D01*
X28471904Y2087620D01*
X29424285Y2992381D02*
X29471904Y3040000D01*
X29567142Y3087620D01*
X29805238Y3087620D01*
X29900476Y3040000D01*
X29948095Y2992381D01*
X29995714Y2897143D01*
X29995714Y2801905D01*
X29948095Y2659048D01*
X29376666Y2087620D01*
X29995714Y2087620D01*
X34028095Y3992620D02*
X34028095Y4992620D01*
X34599523Y3992620D02*
X34170952Y4564048D01*
X34599523Y4992620D02*
X34028095Y4421191D01*
G04 #@! TO.C,D3*
X25852380Y25931905D02*
X24852380Y25931905D01*
X24852380Y26170000D01*
X24900000Y26312858D01*
X24995238Y26408096D01*
X25090476Y26455715D01*
X25280952Y26503334D01*
X25423809Y26503334D01*
X25614285Y26455715D01*
X25709523Y26408096D01*
X25804761Y26312858D01*
X25852380Y26170000D01*
X25852380Y25931905D01*
X24852380Y26836667D02*
X24852380Y27455715D01*
X25233333Y27122381D01*
X25233333Y27265239D01*
X25280952Y27360477D01*
X25328571Y27408096D01*
X25423809Y27455715D01*
X25661904Y27455715D01*
X25757142Y27408096D01*
X25804761Y27360477D01*
X25852380Y27265239D01*
X25852380Y26979524D01*
X25804761Y26884286D01*
X25757142Y26836667D01*
X27757380Y22598096D02*
X26757380Y22598096D01*
X27757380Y23169524D02*
X27185952Y22740953D01*
X26757380Y23169524D02*
X27328809Y22598096D01*
G04 #@! TO.C,D6*
X6802380Y69208392D02*
X5802380Y69208392D01*
X5802380Y69446487D01*
X5850000Y69589345D01*
X5945238Y69684583D01*
X6040476Y69732202D01*
X6230952Y69779821D01*
X6373809Y69779821D01*
X6564285Y69732202D01*
X6659523Y69684583D01*
X6754761Y69589345D01*
X6802380Y69446487D01*
X6802380Y69208392D01*
X5802380Y70636964D02*
X5802380Y70446487D01*
X5850000Y70351249D01*
X5897619Y70303630D01*
X6040476Y70208392D01*
X6230952Y70160773D01*
X6611904Y70160773D01*
X6707142Y70208392D01*
X6754761Y70256011D01*
X6802380Y70351249D01*
X6802380Y70541726D01*
X6754761Y70636964D01*
X6707142Y70684583D01*
X6611904Y70732202D01*
X6373809Y70732202D01*
X6278571Y70684583D01*
X6230952Y70636964D01*
X6183333Y70541726D01*
X6183333Y70351249D01*
X6230952Y70256011D01*
X6278571Y70208392D01*
X6373809Y70160773D01*
G04 #@! TO.C,J1*
X39789166Y3087620D02*
X39789166Y2373334D01*
X39741547Y2230477D01*
X39646309Y2135239D01*
X39503452Y2087620D01*
X39408214Y2087620D01*
X40789166Y2087620D02*
X40217738Y2087620D01*
X40503452Y2087620D02*
X40503452Y3087620D01*
X40408214Y2944762D01*
X40312976Y2849524D01*
X40217738Y2801905D01*
G04 #@! TO.C,Q2*
X16037619Y35464762D02*
X15990000Y35369524D01*
X15894761Y35274286D01*
X15751904Y35131429D01*
X15704285Y35036191D01*
X15704285Y34940953D01*
X15942380Y34988572D02*
X15894761Y34893334D01*
X15799523Y34798096D01*
X15609047Y34750477D01*
X15275714Y34750477D01*
X15085238Y34798096D01*
X14990000Y34893334D01*
X14942380Y34988572D01*
X14942380Y35179048D01*
X14990000Y35274286D01*
X15085238Y35369524D01*
X15275714Y35417143D01*
X15609047Y35417143D01*
X15799523Y35369524D01*
X15894761Y35274286D01*
X15942380Y35179048D01*
X15942380Y34988572D01*
X15037619Y35798096D02*
X14990000Y35845715D01*
X14942380Y35940953D01*
X14942380Y36179048D01*
X14990000Y36274286D01*
X15037619Y36321905D01*
X15132857Y36369524D01*
X15228095Y36369524D01*
X15370952Y36321905D01*
X15942380Y35750477D01*
X15942380Y36369524D01*
G04 #@! TO.C,R1*
X18232380Y16343334D02*
X17756190Y16010000D01*
X18232380Y15771905D02*
X17232380Y15771905D01*
X17232380Y16152858D01*
X17280000Y16248096D01*
X17327619Y16295715D01*
X17422857Y16343334D01*
X17565714Y16343334D01*
X17660952Y16295715D01*
X17708571Y16248096D01*
X17756190Y16152858D01*
X17756190Y15771905D01*
X18232380Y17295715D02*
X18232380Y16724286D01*
X18232380Y17010000D02*
X17232380Y17010000D01*
X17375238Y16914762D01*
X17470476Y16819524D01*
X17518095Y16724286D01*
G04 #@! TO.C,R2*
X13803333Y65587620D02*
X13470000Y66063810D01*
X13231904Y65587620D02*
X13231904Y66587620D01*
X13612857Y66587620D01*
X13708095Y66540000D01*
X13755714Y66492381D01*
X13803333Y66397143D01*
X13803333Y66254286D01*
X13755714Y66159048D01*
X13708095Y66111429D01*
X13612857Y66063810D01*
X13231904Y66063810D01*
X14184285Y66492381D02*
X14231904Y66540000D01*
X14327142Y66587620D01*
X14565238Y66587620D01*
X14660476Y66540000D01*
X14708095Y66492381D01*
X14755714Y66397143D01*
X14755714Y66301905D01*
X14708095Y66159048D01*
X14136666Y65587620D01*
X14755714Y65587620D01*
G04 #@! TO.C,R3*
X26503333Y68127620D02*
X26170000Y68603810D01*
X25931904Y68127620D02*
X25931904Y69127620D01*
X26312857Y69127620D01*
X26408095Y69080000D01*
X26455714Y69032381D01*
X26503333Y68937143D01*
X26503333Y68794286D01*
X26455714Y68699048D01*
X26408095Y68651429D01*
X26312857Y68603810D01*
X25931904Y68603810D01*
X26836666Y69127620D02*
X27455714Y69127620D01*
X27122380Y68746667D01*
X27265238Y68746667D01*
X27360476Y68699048D01*
X27408095Y68651429D01*
X27455714Y68556191D01*
X27455714Y68318096D01*
X27408095Y68222858D01*
X27360476Y68175239D01*
X27265238Y68127620D01*
X26979523Y68127620D01*
X26884285Y68175239D01*
X26836666Y68222858D01*
G04 #@! TO.C,R4*
X26503333Y55427620D02*
X26170000Y55903810D01*
X25931904Y55427620D02*
X25931904Y56427620D01*
X26312857Y56427620D01*
X26408095Y56380000D01*
X26455714Y56332381D01*
X26503333Y56237143D01*
X26503333Y56094286D01*
X26455714Y55999048D01*
X26408095Y55951429D01*
X26312857Y55903810D01*
X25931904Y55903810D01*
X27360476Y56094286D02*
X27360476Y55427620D01*
X27122380Y56475239D02*
X26884285Y55760953D01*
X27503333Y55760953D01*
G04 #@! TO.C,R5*
X21423333Y40187620D02*
X21090000Y40663810D01*
X20851904Y40187620D02*
X20851904Y41187620D01*
X21232857Y41187620D01*
X21328095Y41140000D01*
X21375714Y41092381D01*
X21423333Y40997143D01*
X21423333Y40854286D01*
X21375714Y40759048D01*
X21328095Y40711429D01*
X21232857Y40663810D01*
X20851904Y40663810D01*
X22328095Y41187620D02*
X21851904Y41187620D01*
X21804285Y40711429D01*
X21851904Y40759048D01*
X21947142Y40806667D01*
X22185238Y40806667D01*
X22280476Y40759048D01*
X22328095Y40711429D01*
X22375714Y40616191D01*
X22375714Y40378096D01*
X22328095Y40282858D01*
X22280476Y40235239D01*
X22185238Y40187620D01*
X21947142Y40187620D01*
X21851904Y40235239D01*
X21804285Y40282858D01*
G04 #@! TO.C,R10*
X36187142Y37647620D02*
X35853809Y38123810D01*
X35615714Y37647620D02*
X35615714Y38647620D01*
X35996666Y38647620D01*
X36091904Y38600000D01*
X36139523Y38552381D01*
X36187142Y38457143D01*
X36187142Y38314286D01*
X36139523Y38219048D01*
X36091904Y38171429D01*
X35996666Y38123810D01*
X35615714Y38123810D01*
X37139523Y37647620D02*
X36568095Y37647620D01*
X36853809Y37647620D02*
X36853809Y38647620D01*
X36758571Y38504762D01*
X36663333Y38409524D01*
X36568095Y38361905D01*
X37758571Y38647620D02*
X37853809Y38647620D01*
X37949047Y38600000D01*
X37996666Y38552381D01*
X38044285Y38457143D01*
X38091904Y38266667D01*
X38091904Y38028572D01*
X38044285Y37838096D01*
X37996666Y37742858D01*
X37949047Y37695239D01*
X37853809Y37647620D01*
X37758571Y37647620D01*
X37663333Y37695239D01*
X37615714Y37742858D01*
X37568095Y37838096D01*
X37520476Y38028572D01*
X37520476Y38266667D01*
X37568095Y38457143D01*
X37615714Y38552381D01*
X37663333Y38600000D01*
X37758571Y38647620D01*
G04 #@! TO.C,R11*
X43632380Y61587143D02*
X43156190Y61253810D01*
X43632380Y61015715D02*
X42632380Y61015715D01*
X42632380Y61396667D01*
X42680000Y61491905D01*
X42727619Y61539524D01*
X42822857Y61587143D01*
X42965714Y61587143D01*
X43060952Y61539524D01*
X43108571Y61491905D01*
X43156190Y61396667D01*
X43156190Y61015715D01*
X43632380Y62539524D02*
X43632380Y61968096D01*
X43632380Y62253810D02*
X42632380Y62253810D01*
X42775238Y62158572D01*
X42870476Y62063334D01*
X42918095Y61968096D01*
X43632380Y63491905D02*
X43632380Y62920477D01*
X43632380Y63206191D02*
X42632380Y63206191D01*
X42775238Y63110953D01*
X42870476Y63015715D01*
X42918095Y62920477D01*
G04 #@! TO.C,R13*
X26027142Y60507620D02*
X25693809Y60983810D01*
X25455714Y60507620D02*
X25455714Y61507620D01*
X25836666Y61507620D01*
X25931904Y61460000D01*
X25979523Y61412381D01*
X26027142Y61317143D01*
X26027142Y61174286D01*
X25979523Y61079048D01*
X25931904Y61031429D01*
X25836666Y60983810D01*
X25455714Y60983810D01*
X26979523Y60507620D02*
X26408095Y60507620D01*
X26693809Y60507620D02*
X26693809Y61507620D01*
X26598571Y61364762D01*
X26503333Y61269524D01*
X26408095Y61221905D01*
X27312857Y61507620D02*
X27931904Y61507620D01*
X27598571Y61126667D01*
X27741428Y61126667D01*
X27836666Y61079048D01*
X27884285Y61031429D01*
X27931904Y60936191D01*
X27931904Y60698096D01*
X27884285Y60602858D01*
X27836666Y60555239D01*
X27741428Y60507620D01*
X27455714Y60507620D01*
X27360476Y60555239D01*
X27312857Y60602858D01*
G04 #@! TO.C,R14*
X20772380Y26027143D02*
X20296190Y25693810D01*
X20772380Y25455715D02*
X19772380Y25455715D01*
X19772380Y25836667D01*
X19820000Y25931905D01*
X19867619Y25979524D01*
X19962857Y26027143D01*
X20105714Y26027143D01*
X20200952Y25979524D01*
X20248571Y25931905D01*
X20296190Y25836667D01*
X20296190Y25455715D01*
X20772380Y26979524D02*
X20772380Y26408096D01*
X20772380Y26693810D02*
X19772380Y26693810D01*
X19915238Y26598572D01*
X20010476Y26503334D01*
X20058095Y26408096D01*
X20105714Y27836667D02*
X20772380Y27836667D01*
X19724761Y27598572D02*
X20439047Y27360477D01*
X20439047Y27979524D01*
G04 #@! TO.C,R20*
X13327142Y68127620D02*
X12993809Y68603810D01*
X12755714Y68127620D02*
X12755714Y69127620D01*
X13136666Y69127620D01*
X13231904Y69080000D01*
X13279523Y69032381D01*
X13327142Y68937143D01*
X13327142Y68794286D01*
X13279523Y68699048D01*
X13231904Y68651429D01*
X13136666Y68603810D01*
X12755714Y68603810D01*
X13708095Y69032381D02*
X13755714Y69080000D01*
X13850952Y69127620D01*
X14089047Y69127620D01*
X14184285Y69080000D01*
X14231904Y69032381D01*
X14279523Y68937143D01*
X14279523Y68841905D01*
X14231904Y68699048D01*
X13660476Y68127620D01*
X14279523Y68127620D01*
X14898571Y69127620D02*
X14993809Y69127620D01*
X15089047Y69080000D01*
X15136666Y69032381D01*
X15184285Y68937143D01*
X15231904Y68746667D01*
X15231904Y68508572D01*
X15184285Y68318096D01*
X15136666Y68222858D01*
X15089047Y68175239D01*
X14993809Y68127620D01*
X14898571Y68127620D01*
X14803333Y68175239D01*
X14755714Y68222858D01*
X14708095Y68318096D01*
X14660476Y68508572D01*
X14660476Y68746667D01*
X14708095Y68937143D01*
X14755714Y69032381D01*
X14803333Y69080000D01*
X14898571Y69127620D01*
G04 #@! TO.C,SW1*
X23474761Y93916667D02*
X23522380Y94059524D01*
X23522380Y94297620D01*
X23474761Y94392858D01*
X23427142Y94440477D01*
X23331904Y94488096D01*
X23236666Y94488096D01*
X23141428Y94440477D01*
X23093809Y94392858D01*
X23046190Y94297620D01*
X22998571Y94107143D01*
X22950952Y94011905D01*
X22903333Y93964286D01*
X22808095Y93916667D01*
X22712857Y93916667D01*
X22617619Y93964286D01*
X22570000Y94011905D01*
X22522380Y94107143D01*
X22522380Y94345239D01*
X22570000Y94488096D01*
X22522380Y94821429D02*
X23522380Y95059524D01*
X22808095Y95250000D01*
X23522380Y95440477D01*
X22522380Y95678572D01*
X23522380Y96583334D02*
X23522380Y96011905D01*
X23522380Y96297620D02*
X22522380Y96297620D01*
X22665238Y96202381D01*
X22760476Y96107143D01*
X22808095Y96011905D01*
G04 #@! TO.C,U3*
X32258095Y71667620D02*
X32258095Y70858096D01*
X32305714Y70762858D01*
X32353333Y70715239D01*
X32448571Y70667620D01*
X32639047Y70667620D01*
X32734285Y70715239D01*
X32781904Y70762858D01*
X32829523Y70858096D01*
X32829523Y71667620D01*
X33210476Y71667620D02*
X33829523Y71667620D01*
X33496190Y71286667D01*
X33639047Y71286667D01*
X33734285Y71239048D01*
X33781904Y71191429D01*
X33829523Y71096191D01*
X33829523Y70858096D01*
X33781904Y70762858D01*
X33734285Y70715239D01*
X33639047Y70667620D01*
X33353333Y70667620D01*
X33258095Y70715239D01*
X33210476Y70762858D01*
G04 #@! TO.C,U4*
X17867380Y50038096D02*
X18676904Y50038096D01*
X18772142Y50085715D01*
X18819761Y50133334D01*
X18867380Y50228572D01*
X18867380Y50419048D01*
X18819761Y50514286D01*
X18772142Y50561905D01*
X18676904Y50609524D01*
X17867380Y50609524D01*
X18200714Y51514286D02*
X18867380Y51514286D01*
X17819761Y51276191D02*
X18534047Y51038096D01*
X18534047Y51657143D01*
G04 #@! TO.C,C2*
X28408333Y17422858D02*
X28360714Y17375239D01*
X28217857Y17327620D01*
X28122619Y17327620D01*
X27979761Y17375239D01*
X27884523Y17470477D01*
X27836904Y17565715D01*
X27789285Y17756191D01*
X27789285Y17899048D01*
X27836904Y18089524D01*
X27884523Y18184762D01*
X27979761Y18280000D01*
X28122619Y18327620D01*
X28217857Y18327620D01*
X28360714Y18280000D01*
X28408333Y18232381D01*
X28789285Y18232381D02*
X28836904Y18280000D01*
X28932142Y18327620D01*
X29170238Y18327620D01*
X29265476Y18280000D01*
X29313095Y18232381D01*
X29360714Y18137143D01*
X29360714Y18041905D01*
X29313095Y17899048D01*
X28741666Y17327620D01*
X29360714Y17327620D01*
G04 #@! TO.C,C6*
X20677142Y9993334D02*
X20724761Y9945715D01*
X20772380Y9802858D01*
X20772380Y9707620D01*
X20724761Y9564762D01*
X20629523Y9469524D01*
X20534285Y9421905D01*
X20343809Y9374286D01*
X20200952Y9374286D01*
X20010476Y9421905D01*
X19915238Y9469524D01*
X19820000Y9564762D01*
X19772380Y9707620D01*
X19772380Y9802858D01*
X19820000Y9945715D01*
X19867619Y9993334D01*
X19772380Y10850477D02*
X19772380Y10660000D01*
X19820000Y10564762D01*
X19867619Y10517143D01*
X20010476Y10421905D01*
X20200952Y10374286D01*
X20581904Y10374286D01*
X20677142Y10421905D01*
X20724761Y10469524D01*
X20772380Y10564762D01*
X20772380Y10755239D01*
X20724761Y10850477D01*
X20677142Y10898096D01*
X20581904Y10945715D01*
X20343809Y10945715D01*
X20248571Y10898096D01*
X20200952Y10850477D01*
X20153333Y10755239D01*
X20153333Y10564762D01*
X20200952Y10469524D01*
X20248571Y10421905D01*
X20343809Y10374286D01*
G04 #@! TO.C,U2*
X22312380Y10033096D02*
X23121904Y10033096D01*
X23217142Y10080715D01*
X23264761Y10128334D01*
X23312380Y10223572D01*
X23312380Y10414048D01*
X23264761Y10509286D01*
X23217142Y10556905D01*
X23121904Y10604524D01*
X22312380Y10604524D01*
X22407619Y11033096D02*
X22360000Y11080715D01*
X22312380Y11175953D01*
X22312380Y11414048D01*
X22360000Y11509286D01*
X22407619Y11556905D01*
X22502857Y11604524D01*
X22598095Y11604524D01*
X22740952Y11556905D01*
X23312380Y10985477D01*
X23312380Y11604524D01*
G04 #@! TO.C,RV1*
X40044761Y71937620D02*
X39711428Y72413810D01*
X39473333Y71937620D02*
X39473333Y72937620D01*
X39854285Y72937620D01*
X39949523Y72890000D01*
X39997142Y72842381D01*
X40044761Y72747143D01*
X40044761Y72604286D01*
X39997142Y72509048D01*
X39949523Y72461429D01*
X39854285Y72413810D01*
X39473333Y72413810D01*
X40330476Y72937620D02*
X40663809Y71937620D01*
X40997142Y72937620D01*
X41854285Y71937620D02*
X41282857Y71937620D01*
X41568571Y71937620D02*
X41568571Y72937620D01*
X41473333Y72794762D01*
X41378095Y72699524D01*
X41282857Y72651905D01*
G04 #@! TO.C,Q1*
X7917619Y63404762D02*
X7870000Y63309524D01*
X7774761Y63214286D01*
X7631904Y63071429D01*
X7584285Y62976191D01*
X7584285Y62880953D01*
X7822380Y62928572D02*
X7774761Y62833334D01*
X7679523Y62738096D01*
X7489047Y62690477D01*
X7155714Y62690477D01*
X6965238Y62738096D01*
X6870000Y62833334D01*
X6822380Y62928572D01*
X6822380Y63119048D01*
X6870000Y63214286D01*
X6965238Y63309524D01*
X7155714Y63357143D01*
X7489047Y63357143D01*
X7679523Y63309524D01*
X7774761Y63214286D01*
X7822380Y63119048D01*
X7822380Y62928572D01*
X7822380Y64309524D02*
X7822380Y63738096D01*
X7822380Y64023810D02*
X6822380Y64023810D01*
X6965238Y63928572D01*
X7060476Y63833334D01*
X7108095Y63738096D01*
G04 #@! TO.C,R17*
X18232380Y26027143D02*
X17756190Y25693810D01*
X18232380Y25455715D02*
X17232380Y25455715D01*
X17232380Y25836667D01*
X17280000Y25931905D01*
X17327619Y25979524D01*
X17422857Y26027143D01*
X17565714Y26027143D01*
X17660952Y25979524D01*
X17708571Y25931905D01*
X17756190Y25836667D01*
X17756190Y25455715D01*
X18232380Y26979524D02*
X18232380Y26408096D01*
X18232380Y26693810D02*
X17232380Y26693810D01*
X17375238Y26598572D01*
X17470476Y26503334D01*
X17518095Y26408096D01*
X17232380Y27312858D02*
X17232380Y27979524D01*
X18232380Y27550953D01*
G04 #@! TO.C,R12*
X26027142Y65587620D02*
X25693809Y66063810D01*
X25455714Y65587620D02*
X25455714Y66587620D01*
X25836666Y66587620D01*
X25931904Y66540000D01*
X25979523Y66492381D01*
X26027142Y66397143D01*
X26027142Y66254286D01*
X25979523Y66159048D01*
X25931904Y66111429D01*
X25836666Y66063810D01*
X25455714Y66063810D01*
X26979523Y65587620D02*
X26408095Y65587620D01*
X26693809Y65587620D02*
X26693809Y66587620D01*
X26598571Y66444762D01*
X26503333Y66349524D01*
X26408095Y66301905D01*
X27360476Y66492381D02*
X27408095Y66540000D01*
X27503333Y66587620D01*
X27741428Y66587620D01*
X27836666Y66540000D01*
X27884285Y66492381D01*
X27931904Y66397143D01*
X27931904Y66301905D01*
X27884285Y66159048D01*
X27312857Y65587620D01*
X27931904Y65587620D01*
G04 #@! TO.C,R7*
X26503333Y63047620D02*
X26170000Y63523810D01*
X25931904Y63047620D02*
X25931904Y64047620D01*
X26312857Y64047620D01*
X26408095Y64000000D01*
X26455714Y63952381D01*
X26503333Y63857143D01*
X26503333Y63714286D01*
X26455714Y63619048D01*
X26408095Y63571429D01*
X26312857Y63523810D01*
X25931904Y63523810D01*
X26836666Y64047620D02*
X27503333Y64047620D01*
X27074761Y63047620D01*
G04 #@! TO.C,J2*
X40306666Y97297620D02*
X40306666Y96583334D01*
X40259047Y96440477D01*
X40163809Y96345239D01*
X40020952Y96297620D01*
X39925714Y96297620D01*
X40735238Y97202381D02*
X40782857Y97250000D01*
X40878095Y97297620D01*
X41116190Y97297620D01*
X41211428Y97250000D01*
X41259047Y97202381D01*
X41306666Y97107143D01*
X41306666Y97011905D01*
X41259047Y96869048D01*
X40687619Y96297620D01*
X41306666Y96297620D01*
G04 #@! TO.C,J7*
X40306666Y79287620D02*
X40306666Y78573334D01*
X40259047Y78430477D01*
X40163809Y78335239D01*
X40020952Y78287620D01*
X39925714Y78287620D01*
X40687619Y79287620D02*
X41354285Y79287620D01*
X40925714Y78287620D01*
G04 #@! TO.C,R8*
X36663333Y35107620D02*
X36330000Y35583810D01*
X36091904Y35107620D02*
X36091904Y36107620D01*
X36472857Y36107620D01*
X36568095Y36060000D01*
X36615714Y36012381D01*
X36663333Y35917143D01*
X36663333Y35774286D01*
X36615714Y35679048D01*
X36568095Y35631429D01*
X36472857Y35583810D01*
X36091904Y35583810D01*
X37234761Y35679048D02*
X37139523Y35726667D01*
X37091904Y35774286D01*
X37044285Y35869524D01*
X37044285Y35917143D01*
X37091904Y36012381D01*
X37139523Y36060000D01*
X37234761Y36107620D01*
X37425238Y36107620D01*
X37520476Y36060000D01*
X37568095Y36012381D01*
X37615714Y35917143D01*
X37615714Y35869524D01*
X37568095Y35774286D01*
X37520476Y35726667D01*
X37425238Y35679048D01*
X37234761Y35679048D01*
X37139523Y35631429D01*
X37091904Y35583810D01*
X37044285Y35488572D01*
X37044285Y35298096D01*
X37091904Y35202858D01*
X37139523Y35155239D01*
X37234761Y35107620D01*
X37425238Y35107620D01*
X37520476Y35155239D01*
X37568095Y35202858D01*
X37615714Y35298096D01*
X37615714Y35488572D01*
X37568095Y35583810D01*
X37520476Y35631429D01*
X37425238Y35679048D01*
G04 #@! TO.C,R16*
X30932380Y41267143D02*
X30456190Y40933810D01*
X30932380Y40695715D02*
X29932380Y40695715D01*
X29932380Y41076667D01*
X29980000Y41171905D01*
X30027619Y41219524D01*
X30122857Y41267143D01*
X30265714Y41267143D01*
X30360952Y41219524D01*
X30408571Y41171905D01*
X30456190Y41076667D01*
X30456190Y40695715D01*
X30932380Y42219524D02*
X30932380Y41648096D01*
X30932380Y41933810D02*
X29932380Y41933810D01*
X30075238Y41838572D01*
X30170476Y41743334D01*
X30218095Y41648096D01*
X29932380Y43076667D02*
X29932380Y42886191D01*
X29980000Y42790953D01*
X30027619Y42743334D01*
X30170476Y42648096D01*
X30360952Y42600477D01*
X30741904Y42600477D01*
X30837142Y42648096D01*
X30884761Y42695715D01*
X30932380Y42790953D01*
X30932380Y42981429D01*
X30884761Y43076667D01*
X30837142Y43124286D01*
X30741904Y43171905D01*
X30503809Y43171905D01*
X30408571Y43124286D01*
X30360952Y43076667D01*
X30313333Y42981429D01*
X30313333Y42790953D01*
X30360952Y42695715D01*
X30408571Y42648096D01*
X30503809Y42600477D01*
G04 #@! TO.C,R18*
X23312380Y26027143D02*
X22836190Y25693810D01*
X23312380Y25455715D02*
X22312380Y25455715D01*
X22312380Y25836667D01*
X22360000Y25931905D01*
X22407619Y25979524D01*
X22502857Y26027143D01*
X22645714Y26027143D01*
X22740952Y25979524D01*
X22788571Y25931905D01*
X22836190Y25836667D01*
X22836190Y25455715D01*
X23312380Y26979524D02*
X23312380Y26408096D01*
X23312380Y26693810D02*
X22312380Y26693810D01*
X22455238Y26598572D01*
X22550476Y26503334D01*
X22598095Y26408096D01*
X22740952Y27550953D02*
X22693333Y27455715D01*
X22645714Y27408096D01*
X22550476Y27360477D01*
X22502857Y27360477D01*
X22407619Y27408096D01*
X22360000Y27455715D01*
X22312380Y27550953D01*
X22312380Y27741429D01*
X22360000Y27836667D01*
X22407619Y27884286D01*
X22502857Y27931905D01*
X22550476Y27931905D01*
X22645714Y27884286D01*
X22693333Y27836667D01*
X22740952Y27741429D01*
X22740952Y27550953D01*
X22788571Y27455715D01*
X22836190Y27408096D01*
X22931428Y27360477D01*
X23121904Y27360477D01*
X23217142Y27408096D01*
X23264761Y27455715D01*
X23312380Y27550953D01*
X23312380Y27741429D01*
X23264761Y27836667D01*
X23217142Y27884286D01*
X23121904Y27931905D01*
X22931428Y27931905D01*
X22836190Y27884286D01*
X22788571Y27836667D01*
X22740952Y27741429D01*
G04 #@! TO.C,R15*
X36187142Y40187620D02*
X35853809Y40663810D01*
X35615714Y40187620D02*
X35615714Y41187620D01*
X35996666Y41187620D01*
X36091904Y41140000D01*
X36139523Y41092381D01*
X36187142Y40997143D01*
X36187142Y40854286D01*
X36139523Y40759048D01*
X36091904Y40711429D01*
X35996666Y40663810D01*
X35615714Y40663810D01*
X37139523Y40187620D02*
X36568095Y40187620D01*
X36853809Y40187620D02*
X36853809Y41187620D01*
X36758571Y41044762D01*
X36663333Y40949524D01*
X36568095Y40901905D01*
X38044285Y41187620D02*
X37568095Y41187620D01*
X37520476Y40711429D01*
X37568095Y40759048D01*
X37663333Y40806667D01*
X37901428Y40806667D01*
X37996666Y40759048D01*
X38044285Y40711429D01*
X38091904Y40616191D01*
X38091904Y40378096D01*
X38044285Y40282858D01*
X37996666Y40235239D01*
X37901428Y40187620D01*
X37663333Y40187620D01*
X37568095Y40235239D01*
X37520476Y40282858D01*
G04 #@! TO.C,Q3*
X29757619Y32924762D02*
X29710000Y32829524D01*
X29614761Y32734286D01*
X29471904Y32591429D01*
X29424285Y32496191D01*
X29424285Y32400953D01*
X29662380Y32448572D02*
X29614761Y32353334D01*
X29519523Y32258096D01*
X29329047Y32210477D01*
X28995714Y32210477D01*
X28805238Y32258096D01*
X28710000Y32353334D01*
X28662380Y32448572D01*
X28662380Y32639048D01*
X28710000Y32734286D01*
X28805238Y32829524D01*
X28995714Y32877143D01*
X29329047Y32877143D01*
X29519523Y32829524D01*
X29614761Y32734286D01*
X29662380Y32639048D01*
X29662380Y32448572D01*
X28662380Y33210477D02*
X28662380Y33829524D01*
X29043333Y33496191D01*
X29043333Y33639048D01*
X29090952Y33734286D01*
X29138571Y33781905D01*
X29233809Y33829524D01*
X29471904Y33829524D01*
X29567142Y33781905D01*
X29614761Y33734286D01*
X29662380Y33639048D01*
X29662380Y33353334D01*
X29614761Y33258096D01*
X29567142Y33210477D01*
G04 #@! TO.C,D4*
X38631904Y30027620D02*
X38631904Y31027620D01*
X38870000Y31027620D01*
X39012857Y30980000D01*
X39108095Y30884762D01*
X39155714Y30789524D01*
X39203333Y30599048D01*
X39203333Y30456191D01*
X39155714Y30265715D01*
X39108095Y30170477D01*
X39012857Y30075239D01*
X38870000Y30027620D01*
X38631904Y30027620D01*
X40060476Y30694286D02*
X40060476Y30027620D01*
X39822380Y31075239D02*
X39584285Y30360953D01*
X40203333Y30360953D01*
X33393095Y30027620D02*
X33393095Y31027620D01*
X33964523Y30027620D02*
X33535952Y30599048D01*
X33964523Y31027620D02*
X33393095Y30456191D01*
G04 #@! TO.C,R6*
X39203333Y27487620D02*
X38870000Y27963810D01*
X38631904Y27487620D02*
X38631904Y28487620D01*
X39012857Y28487620D01*
X39108095Y28440000D01*
X39155714Y28392381D01*
X39203333Y28297143D01*
X39203333Y28154286D01*
X39155714Y28059048D01*
X39108095Y28011429D01*
X39012857Y27963810D01*
X38631904Y27963810D01*
X40060476Y28487620D02*
X39870000Y28487620D01*
X39774761Y28440000D01*
X39727142Y28392381D01*
X39631904Y28249524D01*
X39584285Y28059048D01*
X39584285Y27678096D01*
X39631904Y27582858D01*
X39679523Y27535239D01*
X39774761Y27487620D01*
X39965238Y27487620D01*
X40060476Y27535239D01*
X40108095Y27582858D01*
X40155714Y27678096D01*
X40155714Y27916191D01*
X40108095Y28011429D01*
X40060476Y28059048D01*
X39965238Y28106667D01*
X39774761Y28106667D01*
X39679523Y28059048D01*
X39631904Y28011429D01*
X39584285Y27916191D01*
G04 #@! TO.C,Q4*
X29507619Y46894762D02*
X29460000Y46799524D01*
X29364761Y46704286D01*
X29221904Y46561429D01*
X29174285Y46466191D01*
X29174285Y46370953D01*
X29412380Y46418572D02*
X29364761Y46323334D01*
X29269523Y46228096D01*
X29079047Y46180477D01*
X28745714Y46180477D01*
X28555238Y46228096D01*
X28460000Y46323334D01*
X28412380Y46418572D01*
X28412380Y46609048D01*
X28460000Y46704286D01*
X28555238Y46799524D01*
X28745714Y46847143D01*
X29079047Y46847143D01*
X29269523Y46799524D01*
X29364761Y46704286D01*
X29412380Y46609048D01*
X29412380Y46418572D01*
X28745714Y47704286D02*
X29412380Y47704286D01*
X28364761Y47466191D02*
X29079047Y47228096D01*
X29079047Y47847143D01*
G04 #@! TO.C,R9*
X36663333Y32567620D02*
X36330000Y33043810D01*
X36091904Y32567620D02*
X36091904Y33567620D01*
X36472857Y33567620D01*
X36568095Y33520000D01*
X36615714Y33472381D01*
X36663333Y33377143D01*
X36663333Y33234286D01*
X36615714Y33139048D01*
X36568095Y33091429D01*
X36472857Y33043810D01*
X36091904Y33043810D01*
X37139523Y32567620D02*
X37330000Y32567620D01*
X37425238Y32615239D01*
X37472857Y32662858D01*
X37568095Y32805715D01*
X37615714Y32996191D01*
X37615714Y33377143D01*
X37568095Y33472381D01*
X37520476Y33520000D01*
X37425238Y33567620D01*
X37234761Y33567620D01*
X37139523Y33520000D01*
X37091904Y33472381D01*
X37044285Y33377143D01*
X37044285Y33139048D01*
X37091904Y33043810D01*
X37139523Y32996191D01*
X37234761Y32948572D01*
X37425238Y32948572D01*
X37520476Y32996191D01*
X37568095Y33043810D01*
X37615714Y33139048D01*
G04 #@! TO.C,U1*
X36068095Y63837620D02*
X36068095Y63028096D01*
X36115714Y62932858D01*
X36163333Y62885239D01*
X36258571Y62837620D01*
X36449047Y62837620D01*
X36544285Y62885239D01*
X36591904Y62932858D01*
X36639523Y63028096D01*
X36639523Y63837620D01*
X37639523Y62837620D02*
X37068095Y62837620D01*
X37353809Y62837620D02*
X37353809Y63837620D01*
X37258571Y63694762D01*
X37163333Y63599524D01*
X37068095Y63551905D01*
G04 #@! TO.C,J4*
X12552380Y33956667D02*
X13266666Y33956667D01*
X13409523Y33909048D01*
X13504761Y33813810D01*
X13552380Y33670953D01*
X13552380Y33575715D01*
X12885714Y34861429D02*
X13552380Y34861429D01*
X12504761Y34623334D02*
X13219047Y34385239D01*
X13219047Y35004286D01*
G04 #@! TO.C,J5*
X12552380Y17446667D02*
X13266666Y17446667D01*
X13409523Y17399048D01*
X13504761Y17303810D01*
X13552380Y17160953D01*
X13552380Y17065715D01*
X12552380Y18399048D02*
X12552380Y17922858D01*
X13028571Y17875239D01*
X12980952Y17922858D01*
X12933333Y18018096D01*
X12933333Y18256191D01*
X12980952Y18351429D01*
X13028571Y18399048D01*
X13123809Y18446667D01*
X13361904Y18446667D01*
X13457142Y18399048D01*
X13504761Y18351429D01*
X13552380Y18256191D01*
X13552380Y18018096D01*
X13504761Y17922858D01*
X13457142Y17875239D01*
G04 #@! TO.C,J6*
X12552380Y1571667D02*
X13266666Y1571667D01*
X13409523Y1524048D01*
X13504761Y1428810D01*
X13552380Y1285953D01*
X13552380Y1190715D01*
X12552380Y2476429D02*
X12552380Y2285953D01*
X12600000Y2190715D01*
X12647619Y2143096D01*
X12790476Y2047858D01*
X12980952Y2000239D01*
X13361904Y2000239D01*
X13457142Y2047858D01*
X13504761Y2095477D01*
X13552380Y2190715D01*
X13552380Y2381191D01*
X13504761Y2476429D01*
X13457142Y2524048D01*
X13361904Y2571667D01*
X13123809Y2571667D01*
X13028571Y2524048D01*
X12980952Y2476429D01*
X12933333Y2381191D01*
X12933333Y2190715D01*
X12980952Y2095477D01*
X13028571Y2047858D01*
X13123809Y2000239D01*
G04 #@! TO.C,J3*
X12552380Y49831667D02*
X13266666Y49831667D01*
X13409523Y49784048D01*
X13504761Y49688810D01*
X13552380Y49545953D01*
X13552380Y49450715D01*
X12552380Y50212620D02*
X12552380Y50831667D01*
X12933333Y50498334D01*
X12933333Y50641191D01*
X12980952Y50736429D01*
X13028571Y50784048D01*
X13123809Y50831667D01*
X13361904Y50831667D01*
X13457142Y50784048D01*
X13504761Y50736429D01*
X13552380Y50641191D01*
X13552380Y50355477D01*
X13504761Y50260239D01*
X13457142Y50212620D01*
D10*
G04 #@! TO.C,RV2*
X7255000Y81130000D02*
X7255000Y90870000D01*
X7255000Y90870000D02*
X1270000Y90870000D01*
X7255000Y81130000D02*
X1270000Y81130000D01*
G04 #@! TO.C,C1*
X29859000Y54260000D02*
X28601000Y54260000D01*
X29859000Y52420000D02*
X28601000Y52420000D01*
G04 #@! TO.C,C3*
X33331000Y6580000D02*
X33331000Y5585000D01*
X33011000Y6580000D02*
X33011000Y5373000D01*
X32050000Y10181000D02*
X32050000Y8660000D01*
X34011000Y8871000D02*
X34011000Y8660000D01*
X32290000Y6580000D02*
X32290000Y5100000D01*
X32010000Y10185000D02*
X32010000Y8660000D01*
X31850000Y10198000D02*
X31850000Y5042000D01*
X32811000Y9968000D02*
X32811000Y8660000D01*
X33851000Y9120000D02*
X33851000Y8660000D01*
X33691000Y9319000D02*
X33691000Y8660000D01*
X34171000Y8535000D02*
X34171000Y6705000D01*
X33731000Y6580000D02*
X33731000Y5967000D01*
X33171000Y9769000D02*
X33171000Y8660000D01*
X32290000Y10140000D02*
X32290000Y8660000D01*
X33931000Y6580000D02*
X33931000Y6237000D01*
X33811000Y9174000D02*
X33811000Y8660000D01*
X33691000Y6580000D02*
X33691000Y5921000D01*
X32370000Y10121000D02*
X32370000Y8660000D01*
X33251000Y9715000D02*
X33251000Y8660000D01*
X33091000Y9820000D02*
X33091000Y8660000D01*
X33771000Y9225000D02*
X33771000Y8660000D01*
X28925225Y9095000D02*
X29425225Y9095000D01*
X32410000Y10111000D02*
X32410000Y8660000D01*
X29175225Y9345000D02*
X29175225Y8845000D01*
X32491000Y6580000D02*
X32491000Y5152000D01*
X32851000Y6580000D02*
X32851000Y5291000D01*
X32731000Y10002000D02*
X32731000Y8660000D01*
X31890000Y10196000D02*
X31890000Y5044000D01*
X33251000Y6580000D02*
X33251000Y5525000D01*
X33771000Y6580000D02*
X33771000Y6015000D01*
X31770000Y10200000D02*
X31770000Y5040000D01*
X34051000Y8798000D02*
X34051000Y6442000D01*
X32651000Y6580000D02*
X32651000Y5206000D01*
X32811000Y6580000D02*
X32811000Y5272000D01*
X31930000Y10193000D02*
X31930000Y5047000D01*
X32931000Y6580000D02*
X32931000Y5330000D01*
X33571000Y9446000D02*
X33571000Y8660000D01*
X32451000Y10100000D02*
X32451000Y8660000D01*
X33011000Y9867000D02*
X33011000Y8660000D01*
X33211000Y9742000D02*
X33211000Y8660000D01*
X34291000Y8138000D02*
X34291000Y7102000D01*
X32571000Y6580000D02*
X32571000Y5178000D01*
X33891000Y9063000D02*
X33891000Y8660000D01*
X33331000Y9655000D02*
X33331000Y8660000D01*
X34251000Y8297000D02*
X34251000Y6943000D01*
X33891000Y6580000D02*
X33891000Y6177000D01*
X32731000Y6580000D02*
X32731000Y5238000D01*
X32090000Y6580000D02*
X32090000Y5064000D01*
X32531000Y6580000D02*
X32531000Y5165000D01*
X33131000Y6580000D02*
X33131000Y5445000D01*
X32931000Y9910000D02*
X32931000Y8660000D01*
X34011000Y6580000D02*
X34011000Y6369000D01*
X33851000Y6580000D02*
X33851000Y6120000D01*
X33491000Y6580000D02*
X33491000Y5719000D01*
X34091000Y8718000D02*
X34091000Y6522000D01*
X32851000Y9949000D02*
X32851000Y8660000D01*
X32330000Y10131000D02*
X32330000Y8660000D01*
X32771000Y6580000D02*
X32771000Y5255000D01*
X33971000Y8939000D02*
X33971000Y8660000D01*
X32210000Y10156000D02*
X32210000Y8660000D01*
X33171000Y6580000D02*
X33171000Y5471000D01*
X33371000Y6580000D02*
X33371000Y5616000D01*
X33091000Y6580000D02*
X33091000Y5420000D01*
X33291000Y6580000D02*
X33291000Y5555000D01*
X32250000Y10148000D02*
X32250000Y8660000D01*
X32050000Y6580000D02*
X32050000Y5059000D01*
X32971000Y9888000D02*
X32971000Y8660000D01*
X32451000Y6580000D02*
X32451000Y5140000D01*
X32771000Y9985000D02*
X32771000Y8660000D01*
X31970000Y10189000D02*
X31970000Y8660000D01*
X32010000Y6580000D02*
X32010000Y5055000D01*
X33651000Y6580000D02*
X33651000Y5877000D01*
X31730000Y10200000D02*
X31730000Y5040000D01*
X33611000Y9405000D02*
X33611000Y8660000D01*
X32090000Y10176000D02*
X32090000Y8660000D01*
X33051000Y6580000D02*
X33051000Y5396000D01*
X32170000Y6580000D02*
X32170000Y5077000D01*
X33451000Y6580000D02*
X33451000Y5683000D01*
X32531000Y10075000D02*
X32531000Y8660000D01*
X32971000Y6580000D02*
X32971000Y5352000D01*
X32491000Y10088000D02*
X32491000Y8660000D01*
X32891000Y9930000D02*
X32891000Y8660000D01*
X32250000Y6580000D02*
X32250000Y5092000D01*
X33571000Y6580000D02*
X33571000Y5794000D01*
X32691000Y10018000D02*
X32691000Y8660000D01*
X32410000Y6580000D02*
X32410000Y5129000D01*
X31970000Y6580000D02*
X31970000Y5051000D01*
X33931000Y9003000D02*
X33931000Y8660000D01*
X32170000Y10163000D02*
X32170000Y8660000D01*
X33651000Y9363000D02*
X33651000Y8660000D01*
X33811000Y6580000D02*
X33811000Y6066000D01*
X33531000Y6580000D02*
X33531000Y5756000D01*
X32611000Y10048000D02*
X32611000Y8660000D01*
X33371000Y9624000D02*
X33371000Y8660000D01*
X33291000Y9685000D02*
X33291000Y8660000D01*
X32571000Y10062000D02*
X32571000Y8660000D01*
X32651000Y10034000D02*
X32651000Y8660000D01*
X31810000Y10199000D02*
X31810000Y5041000D01*
X32210000Y6580000D02*
X32210000Y5084000D01*
X33531000Y9484000D02*
X33531000Y8660000D01*
X33211000Y6580000D02*
X33211000Y5498000D01*
X33971000Y6580000D02*
X33971000Y6301000D01*
X33411000Y9591000D02*
X33411000Y8660000D01*
X34131000Y8631000D02*
X34131000Y6609000D01*
X32691000Y6580000D02*
X32691000Y5222000D01*
X33451000Y9557000D02*
X33451000Y8660000D01*
X32130000Y6580000D02*
X32130000Y5070000D01*
X33051000Y9844000D02*
X33051000Y8660000D01*
X33491000Y9521000D02*
X33491000Y8660000D01*
X32611000Y6580000D02*
X32611000Y5192000D01*
X32891000Y6580000D02*
X32891000Y5310000D01*
X33731000Y9273000D02*
X33731000Y8660000D01*
X33131000Y9795000D02*
X33131000Y8660000D01*
X33611000Y6580000D02*
X33611000Y5835000D01*
X33411000Y6580000D02*
X33411000Y5649000D01*
X32130000Y10170000D02*
X32130000Y8660000D01*
X32370000Y6580000D02*
X32370000Y5119000D01*
X34331000Y7904000D02*
X34331000Y7336000D01*
X34211000Y8425000D02*
X34211000Y6815000D01*
X32330000Y6580000D02*
X32330000Y5109000D01*
X34350000Y7620000D02*
G75*
G03*
X34350000Y7620000I-2620000J0D01*
G01*
G04 #@! TO.C,C4*
X44100000Y54001000D02*
X44100000Y55259000D01*
X42260000Y54001000D02*
X42260000Y55259000D01*
G04 #@! TO.C,C5*
X19400000Y18441000D02*
X19400000Y19699000D01*
X21240000Y18441000D02*
X21240000Y19699000D01*
G04 #@! TO.C,C7*
X26661000Y9888000D02*
X26661000Y8660000D01*
X27021000Y9655000D02*
X27021000Y8660000D01*
X26621000Y9910000D02*
X26621000Y8660000D01*
X27621000Y6580000D02*
X27621000Y6237000D01*
X26821000Y9795000D02*
X26821000Y8660000D01*
X27221000Y6580000D02*
X27221000Y5756000D01*
X26621000Y6580000D02*
X26621000Y5330000D01*
X25540000Y10198000D02*
X25540000Y5042000D01*
X27661000Y6580000D02*
X27661000Y6301000D01*
X27901000Y8425000D02*
X27901000Y6815000D01*
X26461000Y6580000D02*
X26461000Y5255000D01*
X27261000Y9446000D02*
X27261000Y8660000D01*
X27101000Y9591000D02*
X27101000Y8660000D01*
X27301000Y9405000D02*
X27301000Y8660000D01*
X27061000Y9624000D02*
X27061000Y8660000D01*
X26461000Y9985000D02*
X26461000Y8660000D01*
X25940000Y6580000D02*
X25940000Y5092000D01*
X25740000Y6580000D02*
X25740000Y5059000D01*
X27501000Y6580000D02*
X27501000Y6066000D01*
X27381000Y6580000D02*
X27381000Y5921000D01*
X27381000Y9319000D02*
X27381000Y8660000D01*
X27061000Y6580000D02*
X27061000Y5616000D01*
X26781000Y9820000D02*
X26781000Y8660000D01*
X26861000Y6580000D02*
X26861000Y5471000D01*
X27461000Y9225000D02*
X27461000Y8660000D01*
X27621000Y9003000D02*
X27621000Y8660000D01*
X25780000Y10176000D02*
X25780000Y8660000D01*
X26581000Y6580000D02*
X26581000Y5310000D01*
X25620000Y10193000D02*
X25620000Y5047000D01*
X26901000Y9742000D02*
X26901000Y8660000D01*
X27741000Y8798000D02*
X27741000Y6442000D01*
X25900000Y10156000D02*
X25900000Y8660000D01*
X26981000Y9685000D02*
X26981000Y8660000D01*
X25940000Y10148000D02*
X25940000Y8660000D01*
X26221000Y6580000D02*
X26221000Y5165000D01*
X26541000Y9949000D02*
X26541000Y8660000D01*
X26301000Y6580000D02*
X26301000Y5192000D01*
X25820000Y6580000D02*
X25820000Y5070000D01*
X25980000Y10140000D02*
X25980000Y8660000D01*
X26421000Y10002000D02*
X26421000Y8660000D01*
X26261000Y10062000D02*
X26261000Y8660000D01*
X25700000Y10185000D02*
X25700000Y8660000D01*
X27541000Y9120000D02*
X27541000Y8660000D01*
X26301000Y10048000D02*
X26301000Y8660000D01*
X25660000Y10189000D02*
X25660000Y8660000D01*
X27261000Y6580000D02*
X27261000Y5794000D01*
X27181000Y9521000D02*
X27181000Y8660000D01*
X26701000Y9867000D02*
X26701000Y8660000D01*
X27421000Y9273000D02*
X27421000Y8660000D01*
X26741000Y6580000D02*
X26741000Y5396000D01*
X26100000Y6580000D02*
X26100000Y5129000D01*
X26020000Y6580000D02*
X26020000Y5109000D01*
X27581000Y9063000D02*
X27581000Y8660000D01*
X27461000Y6580000D02*
X27461000Y6015000D01*
X26421000Y6580000D02*
X26421000Y5238000D01*
X25860000Y10163000D02*
X25860000Y8660000D01*
X26821000Y6580000D02*
X26821000Y5445000D01*
X26341000Y6580000D02*
X26341000Y5206000D01*
X26141000Y10100000D02*
X26141000Y8660000D01*
X26581000Y9930000D02*
X26581000Y8660000D01*
X27301000Y6580000D02*
X27301000Y5835000D01*
X27141000Y6580000D02*
X27141000Y5683000D01*
X27181000Y6580000D02*
X27181000Y5719000D01*
X27421000Y6580000D02*
X27421000Y5967000D01*
X25900000Y6580000D02*
X25900000Y5084000D01*
X22865225Y9345000D02*
X22865225Y8845000D01*
X27821000Y8631000D02*
X27821000Y6609000D01*
X26501000Y9968000D02*
X26501000Y8660000D01*
X26381000Y10018000D02*
X26381000Y8660000D01*
X27141000Y9557000D02*
X27141000Y8660000D01*
X26141000Y6580000D02*
X26141000Y5140000D01*
X25860000Y6580000D02*
X25860000Y5077000D01*
X25980000Y6580000D02*
X25980000Y5100000D01*
X26221000Y10075000D02*
X26221000Y8660000D01*
X25700000Y6580000D02*
X25700000Y5055000D01*
X28021000Y7904000D02*
X28021000Y7336000D01*
X25420000Y10200000D02*
X25420000Y5040000D01*
X27701000Y6580000D02*
X27701000Y6369000D01*
X26020000Y10131000D02*
X26020000Y8660000D01*
X25580000Y10196000D02*
X25580000Y5044000D01*
X25460000Y10200000D02*
X25460000Y5040000D01*
X27101000Y6580000D02*
X27101000Y5649000D01*
X26060000Y10121000D02*
X26060000Y8660000D01*
X26261000Y6580000D02*
X26261000Y5178000D01*
X27581000Y6580000D02*
X27581000Y6177000D01*
X25740000Y10181000D02*
X25740000Y8660000D01*
X27541000Y6580000D02*
X27541000Y6120000D01*
X26501000Y6580000D02*
X26501000Y5272000D01*
X26060000Y6580000D02*
X26060000Y5119000D01*
X26181000Y10088000D02*
X26181000Y8660000D01*
X25780000Y6580000D02*
X25780000Y5064000D01*
X27021000Y6580000D02*
X27021000Y5585000D01*
X27701000Y8871000D02*
X27701000Y8660000D01*
X26701000Y6580000D02*
X26701000Y5373000D01*
X26541000Y6580000D02*
X26541000Y5291000D01*
X26341000Y10034000D02*
X26341000Y8660000D01*
X27661000Y8939000D02*
X27661000Y8660000D01*
X26861000Y9769000D02*
X26861000Y8660000D01*
X27981000Y8138000D02*
X27981000Y7102000D01*
X26741000Y9844000D02*
X26741000Y8660000D01*
X25500000Y10199000D02*
X25500000Y5041000D01*
X26941000Y9715000D02*
X26941000Y8660000D01*
X26100000Y10111000D02*
X26100000Y8660000D01*
X26941000Y6580000D02*
X26941000Y5525000D01*
X27781000Y8718000D02*
X27781000Y6522000D01*
X26381000Y6580000D02*
X26381000Y5222000D01*
X26781000Y6580000D02*
X26781000Y5420000D01*
X25660000Y6580000D02*
X25660000Y5051000D01*
X26981000Y6580000D02*
X26981000Y5555000D01*
X26661000Y6580000D02*
X26661000Y5352000D01*
X26181000Y6580000D02*
X26181000Y5152000D01*
X22615225Y9095000D02*
X23115225Y9095000D01*
X25820000Y10170000D02*
X25820000Y8660000D01*
X27861000Y8535000D02*
X27861000Y6705000D01*
X27341000Y6580000D02*
X27341000Y5877000D01*
X27941000Y8297000D02*
X27941000Y6943000D01*
X27221000Y9484000D02*
X27221000Y8660000D01*
X27341000Y9363000D02*
X27341000Y8660000D01*
X26901000Y6580000D02*
X26901000Y5498000D01*
X27501000Y9174000D02*
X27501000Y8660000D01*
X28040000Y7620000D02*
G75*
G03*
X28040000Y7620000I-2620000J0D01*
G01*
G04 #@! TO.C,C8*
X21940000Y85739000D02*
X21940000Y84481000D01*
X23780000Y85739000D02*
X23780000Y84481000D01*
G04 #@! TO.C,D1*
X27570000Y19400000D02*
X30850000Y19400000D01*
X28026000Y21240000D02*
X28026000Y19400000D01*
X26390000Y20320000D02*
X27570000Y20320000D01*
X32030000Y20320000D02*
X30850000Y20320000D01*
X27570000Y21240000D02*
X27570000Y19400000D01*
X28266000Y21240000D02*
X28266000Y19400000D01*
X30850000Y21240000D02*
X27570000Y21240000D01*
X28146000Y21240000D02*
X28146000Y19400000D01*
X30850000Y19400000D02*
X30850000Y21240000D01*
G04 #@! TO.C,D2*
X27570000Y3460000D02*
X27570000Y1620000D01*
X30850000Y1620000D02*
X30850000Y3460000D01*
X30850000Y3460000D02*
X27570000Y3460000D01*
X27570000Y1620000D02*
X30850000Y1620000D01*
X26390000Y2540000D02*
X27570000Y2540000D01*
X30154000Y1620000D02*
X30154000Y3460000D01*
X30394000Y1620000D02*
X30394000Y3460000D01*
X32030000Y2540000D02*
X30850000Y2540000D01*
X30274000Y1620000D02*
X30274000Y3460000D01*
G04 #@! TO.C,D3*
X24480000Y25030000D02*
X26320000Y25030000D01*
X24480000Y25606000D02*
X26320000Y25606000D01*
X24480000Y25726000D02*
X26320000Y25726000D01*
X24480000Y25486000D02*
X26320000Y25486000D01*
X26320000Y28310000D02*
X24480000Y28310000D01*
X25400000Y29490000D02*
X25400000Y28310000D01*
X25400000Y23850000D02*
X25400000Y25030000D01*
X24480000Y28310000D02*
X24480000Y25030000D01*
X26320000Y25030000D02*
X26320000Y28310000D01*
G04 #@! TO.C,D6*
X3620000Y68290000D02*
X3776000Y68290000D01*
X1304000Y68290000D02*
X1460000Y68290000D01*
X3775516Y68290000D02*
G75*
G03*
X3618608Y71522335I-1235516J1560000D01*
G01*
X1460163Y70891130D02*
G75*
G03*
X1460000Y68809039I1079837J-1041130D01*
G01*
X3620000Y68809039D02*
G75*
G03*
X3619837Y70891130I-1080000J1040961D01*
G01*
X1461392Y71522335D02*
G75*
G03*
X1304484Y68290000I1078608J-1672335D01*
G01*
G04 #@! TO.C,J1*
X43372500Y8110000D02*
X43372500Y1170000D01*
X46072500Y4580000D02*
X46072500Y5580000D01*
X36872500Y19150000D02*
X43372500Y19150000D01*
X46072500Y5580000D02*
X45072500Y5080000D01*
X43372500Y12210000D02*
X43372500Y12210000D01*
X43372500Y19150000D02*
X43372500Y12210000D01*
X45072500Y5080000D02*
X46072500Y4580000D01*
X44682500Y8110000D02*
X43372500Y8110000D01*
X36872500Y1170000D02*
X36872500Y19150000D01*
X43372500Y1170000D02*
X36872500Y1170000D01*
X43372500Y12210000D02*
X44682500Y12210000D01*
G04 #@! TO.C,Q2*
X20900000Y33760000D02*
X20900000Y37360000D01*
X16449999Y35560000D02*
G75*
G03*
X20888478Y33721522I2600001J0D01*
G01*
X20888478Y37398478D02*
G75*
G03*
X16450000Y35560000I-1838478J-1838478D01*
G01*
G04 #@! TO.C,R1*
X16860000Y14590000D02*
X18700000Y14590000D01*
X18700000Y18430000D02*
X16860000Y18430000D01*
X16860000Y18430000D02*
X16860000Y14590000D01*
X18700000Y14590000D02*
X18700000Y18430000D01*
X17780000Y13640000D02*
X17780000Y14590000D01*
X17780000Y19380000D02*
X17780000Y18430000D01*
G04 #@! TO.C,R2*
X12050000Y65120000D02*
X15890000Y65120000D01*
X15890000Y66960000D02*
X12050000Y66960000D01*
X16840000Y66040000D02*
X15890000Y66040000D01*
X12050000Y66960000D02*
X12050000Y65120000D01*
X15890000Y65120000D02*
X15890000Y66960000D01*
X11100000Y66040000D02*
X12050000Y66040000D01*
G04 #@! TO.C,R3*
X28590000Y67660000D02*
X28590000Y69500000D01*
X24750000Y69500000D02*
X24750000Y67660000D01*
X28590000Y69500000D02*
X24750000Y69500000D01*
X23800000Y68580000D02*
X24750000Y68580000D01*
X29540000Y68580000D02*
X28590000Y68580000D01*
X24750000Y67660000D02*
X28590000Y67660000D01*
G04 #@! TO.C,R4*
X29540000Y55880000D02*
X28590000Y55880000D01*
X24750000Y54960000D02*
X28590000Y54960000D01*
X23800000Y55880000D02*
X24750000Y55880000D01*
X28590000Y54960000D02*
X28590000Y56800000D01*
X28590000Y56800000D02*
X24750000Y56800000D01*
X24750000Y56800000D02*
X24750000Y54960000D01*
G04 #@! TO.C,R5*
X18720000Y40640000D02*
X19670000Y40640000D01*
X23510000Y41560000D02*
X19670000Y41560000D01*
X24460000Y40640000D02*
X23510000Y40640000D01*
X19670000Y41560000D02*
X19670000Y39720000D01*
X23510000Y39720000D02*
X23510000Y41560000D01*
X19670000Y39720000D02*
X23510000Y39720000D01*
G04 #@! TO.C,R10*
X34910000Y39020000D02*
X34910000Y37180000D01*
X38750000Y39020000D02*
X34910000Y39020000D01*
X34910000Y37180000D02*
X38750000Y37180000D01*
X39700000Y38100000D02*
X38750000Y38100000D01*
X38750000Y37180000D02*
X38750000Y39020000D01*
X33960000Y38100000D02*
X34910000Y38100000D01*
G04 #@! TO.C,R11*
X44100000Y64150000D02*
X42260000Y64150000D01*
X43180000Y59360000D02*
X43180000Y60310000D01*
X44100000Y60310000D02*
X44100000Y64150000D01*
X42260000Y60310000D02*
X44100000Y60310000D01*
X42260000Y64150000D02*
X42260000Y60310000D01*
X43180000Y65100000D02*
X43180000Y64150000D01*
G04 #@! TO.C,R13*
X28590000Y60040000D02*
X28590000Y61880000D01*
X24750000Y60040000D02*
X28590000Y60040000D01*
X28590000Y61880000D02*
X24750000Y61880000D01*
X24750000Y61880000D02*
X24750000Y60040000D01*
X29540000Y60960000D02*
X28590000Y60960000D01*
X23800000Y60960000D02*
X24750000Y60960000D01*
G04 #@! TO.C,R14*
X20320000Y23800000D02*
X20320000Y24750000D01*
X21240000Y24750000D02*
X21240000Y28590000D01*
X19400000Y28590000D02*
X19400000Y24750000D01*
X20320000Y29540000D02*
X20320000Y28590000D01*
X19400000Y24750000D02*
X21240000Y24750000D01*
X21240000Y28590000D02*
X19400000Y28590000D01*
G04 #@! TO.C,R20*
X11100000Y68580000D02*
X12050000Y68580000D01*
X12050000Y67660000D02*
X15890000Y67660000D01*
X12050000Y69500000D02*
X12050000Y67660000D01*
X16840000Y68580000D02*
X15890000Y68580000D01*
X15890000Y69500000D02*
X12050000Y69500000D01*
X15890000Y67660000D02*
X15890000Y69500000D01*
G04 #@! TO.C,SW1*
X24070000Y93920000D02*
X24070000Y95250000D01*
X29270000Y93920000D02*
X29270000Y96580000D01*
X26670000Y93920000D02*
X26670000Y96580000D01*
X25400000Y93920000D02*
X24070000Y93920000D01*
X26670000Y93920000D02*
X29270000Y93920000D01*
X26670000Y96580000D02*
X29270000Y96580000D01*
G04 #@! TO.C,U3*
X34370000Y92850000D02*
X24090000Y92850000D01*
X26580000Y92790000D02*
X26580000Y72350000D01*
X24090000Y72290000D02*
X34370000Y72290000D01*
X24090000Y92850000D02*
X24090000Y72290000D01*
X34370000Y72290000D02*
X34370000Y92850000D01*
X31880000Y72350000D02*
X31880000Y92790000D01*
X31880000Y92790000D02*
X30230000Y92790000D01*
X28230000Y92790000D02*
X26580000Y92790000D01*
X26580000Y72350000D02*
X31880000Y72350000D01*
X28230000Y92790000D02*
G75*
G03*
X30230000Y92790000I1000000J0D01*
G01*
G04 #@! TO.C,U4*
X21770000Y54010000D02*
X21770000Y47590000D01*
X16520000Y47180000D02*
X16520000Y47590000D01*
X21390000Y44600000D02*
X21390000Y47590000D01*
X20320000Y47180000D02*
X20320000Y47590000D01*
X19660000Y54010000D02*
X19660000Y54420000D01*
X15050000Y54010000D02*
X21770000Y54010000D01*
X21770000Y47590000D02*
X15050000Y47590000D01*
X17110000Y54010000D02*
X17110000Y54420000D01*
X15050000Y47590000D02*
X15050000Y54010000D01*
G04 #@! TO.C,C2*
X29969000Y16280000D02*
X29969000Y17141000D01*
X31290000Y12697000D02*
X31290000Y14200000D01*
X31370000Y16280000D02*
X31370000Y17796000D01*
X31490000Y12671000D02*
X31490000Y14200000D01*
X30809000Y16280000D02*
X30809000Y17654000D01*
X29449000Y13989000D02*
X29449000Y14200000D01*
X29649000Y13686000D02*
X29649000Y14200000D01*
X29929000Y13376000D02*
X29929000Y14200000D01*
X31170000Y12720000D02*
X31170000Y14200000D01*
X29849000Y16280000D02*
X29849000Y17025000D01*
X30169000Y13175000D02*
X30169000Y14200000D01*
X29329000Y14229000D02*
X29329000Y16251000D01*
X29689000Y13635000D02*
X29689000Y14200000D01*
X31050000Y16280000D02*
X31050000Y17731000D01*
X29689000Y16280000D02*
X29689000Y16845000D01*
X31330000Y12690000D02*
X31330000Y14200000D01*
X31210000Y12712000D02*
X31210000Y14200000D01*
X30489000Y12972000D02*
X30489000Y14200000D01*
X30689000Y16280000D02*
X30689000Y17605000D01*
X30729000Y12858000D02*
X30729000Y14200000D01*
X30529000Y16280000D02*
X30529000Y17530000D01*
X30249000Y16280000D02*
X30249000Y17362000D01*
X29249000Y14435000D02*
X29249000Y16045000D01*
X31490000Y16280000D02*
X31490000Y17809000D01*
X30689000Y12875000D02*
X30689000Y14200000D01*
X30529000Y12950000D02*
X30529000Y14200000D01*
X31290000Y16280000D02*
X31290000Y17783000D01*
X30889000Y16280000D02*
X30889000Y17682000D01*
X29489000Y16280000D02*
X29489000Y16559000D01*
X30369000Y16280000D02*
X30369000Y17440000D01*
X29529000Y16280000D02*
X29529000Y16623000D01*
X29289000Y14325000D02*
X29289000Y16155000D01*
X29569000Y16280000D02*
X29569000Y16683000D01*
X34534775Y13765000D02*
X34034775Y13765000D01*
X31210000Y16280000D02*
X31210000Y17768000D01*
X31250000Y16280000D02*
X31250000Y17776000D01*
X30329000Y16280000D02*
X30329000Y17415000D01*
X29129000Y14956000D02*
X29129000Y15524000D01*
X29769000Y13541000D02*
X29769000Y14200000D01*
X30849000Y12812000D02*
X30849000Y14200000D01*
X30089000Y13236000D02*
X30089000Y14200000D01*
X29889000Y16280000D02*
X29889000Y17066000D01*
X31730000Y12660000D02*
X31730000Y17820000D01*
X29169000Y14722000D02*
X29169000Y15758000D01*
X30409000Y13016000D02*
X30409000Y14200000D01*
X31009000Y12760000D02*
X31009000Y14200000D01*
X31450000Y12675000D02*
X31450000Y14200000D01*
X30889000Y12798000D02*
X30889000Y14200000D01*
X30769000Y12842000D02*
X30769000Y14200000D01*
X29809000Y16280000D02*
X29809000Y16983000D01*
X30289000Y16280000D02*
X30289000Y17389000D01*
X31050000Y12749000D02*
X31050000Y14200000D01*
X31330000Y16280000D02*
X31330000Y17790000D01*
X30129000Y16280000D02*
X30129000Y17275000D01*
X30249000Y13118000D02*
X30249000Y14200000D01*
X31650000Y12661000D02*
X31650000Y17819000D01*
X30049000Y16280000D02*
X30049000Y17211000D01*
X29929000Y16280000D02*
X29929000Y17104000D01*
X30329000Y13065000D02*
X30329000Y14200000D01*
X30569000Y12930000D02*
X30569000Y14200000D01*
X29409000Y14062000D02*
X29409000Y16418000D01*
X29369000Y14142000D02*
X29369000Y16338000D01*
X30729000Y16280000D02*
X30729000Y17622000D01*
X31610000Y12662000D02*
X31610000Y17818000D01*
X30209000Y13145000D02*
X30209000Y14200000D01*
X30129000Y13205000D02*
X30129000Y14200000D01*
X30049000Y13269000D02*
X30049000Y14200000D01*
X29649000Y16280000D02*
X29649000Y16794000D01*
X31250000Y12704000D02*
X31250000Y14200000D01*
X30289000Y13091000D02*
X30289000Y14200000D01*
X30929000Y16280000D02*
X30929000Y17695000D01*
X31530000Y12667000D02*
X31530000Y17813000D01*
X29769000Y16280000D02*
X29769000Y16939000D01*
X29449000Y16280000D02*
X29449000Y16491000D01*
X29609000Y16280000D02*
X29609000Y16740000D01*
X30089000Y16280000D02*
X30089000Y17244000D01*
X30009000Y16280000D02*
X30009000Y17177000D01*
X29729000Y13587000D02*
X29729000Y14200000D01*
X31690000Y12660000D02*
X31690000Y17820000D01*
X30649000Y16280000D02*
X30649000Y17588000D01*
X30849000Y16280000D02*
X30849000Y17668000D01*
X29969000Y13339000D02*
X29969000Y14200000D01*
X31410000Y16280000D02*
X31410000Y17801000D01*
X29729000Y16280000D02*
X29729000Y16893000D01*
X30929000Y12785000D02*
X30929000Y14200000D01*
X30409000Y16280000D02*
X30409000Y17464000D01*
X29569000Y13797000D02*
X29569000Y14200000D01*
X29849000Y13455000D02*
X29849000Y14200000D01*
X30569000Y16280000D02*
X30569000Y17550000D01*
X30809000Y12826000D02*
X30809000Y14200000D01*
X30649000Y12892000D02*
X30649000Y14200000D01*
X31090000Y12739000D02*
X31090000Y14200000D01*
X31410000Y12679000D02*
X31410000Y14200000D01*
X30449000Y12993000D02*
X30449000Y14200000D01*
X29209000Y14563000D02*
X29209000Y15917000D01*
X31130000Y16280000D02*
X31130000Y17751000D01*
X31090000Y16280000D02*
X31090000Y17741000D01*
X31009000Y16280000D02*
X31009000Y17720000D01*
X30169000Y16280000D02*
X30169000Y17305000D01*
X29529000Y13857000D02*
X29529000Y14200000D01*
X30369000Y13040000D02*
X30369000Y14200000D01*
X29489000Y13921000D02*
X29489000Y14200000D01*
X30969000Y12772000D02*
X30969000Y14200000D01*
X30209000Y16280000D02*
X30209000Y17335000D01*
X30769000Y16280000D02*
X30769000Y17638000D01*
X29609000Y13740000D02*
X29609000Y14200000D01*
X30969000Y16280000D02*
X30969000Y17708000D01*
X30609000Y12911000D02*
X30609000Y14200000D01*
X30449000Y16280000D02*
X30449000Y17487000D01*
X34284775Y13515000D02*
X34284775Y14015000D01*
X31370000Y12684000D02*
X31370000Y14200000D01*
X31570000Y12664000D02*
X31570000Y17816000D01*
X31450000Y16280000D02*
X31450000Y17805000D01*
X31170000Y16280000D02*
X31170000Y17760000D01*
X30609000Y16280000D02*
X30609000Y17569000D01*
X30489000Y16280000D02*
X30489000Y17508000D01*
X29809000Y13497000D02*
X29809000Y14200000D01*
X30009000Y13303000D02*
X30009000Y14200000D01*
X29889000Y13414000D02*
X29889000Y14200000D01*
X31130000Y12729000D02*
X31130000Y14200000D01*
X34350000Y15240000D02*
G75*
G03*
X34350000Y15240000I-2620000J0D01*
G01*
G04 #@! TO.C,C6*
X21240000Y14619000D02*
X21240000Y13361000D01*
X19400000Y14619000D02*
X19400000Y13361000D01*
G04 #@! TO.C,U2*
X27250000Y12170000D02*
X27250000Y15770000D01*
X27238478Y15808478D02*
G75*
G03*
X22800000Y13970000I-1838478J-1838478D01*
G01*
X22799999Y13970000D02*
G75*
G03*
X27238478Y12131522I2600001J0D01*
G01*
G04 #@! TO.C,RV1*
X44570000Y71000000D02*
X44570000Y68970000D01*
X44570000Y71000000D02*
X36709000Y71000000D01*
X44570000Y68970000D02*
X36709000Y68970000D01*
X36709000Y71000000D02*
X36709000Y68970000D01*
X44826000Y77210000D02*
X44826000Y71000000D01*
X44826000Y77210000D02*
X36455000Y77210000D01*
X44826000Y71000000D02*
X36455000Y71000000D01*
X36455000Y77210000D02*
X36455000Y71000000D01*
G04 #@! TO.C,Q1*
X1960000Y65300000D02*
X1960000Y61700000D01*
X6410001Y63500000D02*
G75*
G03*
X1971522Y65338478I-2600001J0D01*
G01*
X1971522Y61661522D02*
G75*
G03*
X6410000Y63500000I1838478J1838478D01*
G01*
G04 #@! TO.C,R17*
X16860000Y24750000D02*
X18700000Y24750000D01*
X17780000Y23800000D02*
X17780000Y24750000D01*
X18700000Y28590000D02*
X16860000Y28590000D01*
X16860000Y28590000D02*
X16860000Y24750000D01*
X17780000Y29540000D02*
X17780000Y28590000D01*
X18700000Y24750000D02*
X18700000Y28590000D01*
G04 #@! TO.C,R12*
X23800000Y66040000D02*
X24750000Y66040000D01*
X28590000Y65120000D02*
X28590000Y66960000D01*
X28590000Y66960000D02*
X24750000Y66960000D01*
X24750000Y65120000D02*
X28590000Y65120000D01*
X29540000Y66040000D02*
X28590000Y66040000D01*
X24750000Y66960000D02*
X24750000Y65120000D01*
G04 #@! TO.C,R7*
X23800000Y63500000D02*
X24750000Y63500000D01*
X24750000Y62580000D02*
X28590000Y62580000D01*
X29540000Y63500000D02*
X28590000Y63500000D01*
X24750000Y64420000D02*
X24750000Y62580000D01*
X28590000Y64420000D02*
X24750000Y64420000D01*
X28590000Y62580000D02*
X28590000Y64420000D01*
G04 #@! TO.C,J2*
X39310000Y92710000D02*
X41970000Y92710000D01*
X39310000Y92710000D02*
X39310000Y87570000D01*
X41970000Y92710000D02*
X41970000Y87570000D01*
X39310000Y87570000D02*
X41970000Y87570000D01*
G04 #@! TO.C,J7*
X39310000Y85090000D02*
X39310000Y79950000D01*
X39310000Y79950000D02*
X41970000Y79950000D01*
X41970000Y85090000D02*
X41970000Y79950000D01*
X39310000Y85090000D02*
X41970000Y85090000D01*
G04 #@! TO.C,R8*
X34910000Y34640000D02*
X38750000Y34640000D01*
X38750000Y34640000D02*
X38750000Y36480000D01*
X33960000Y35560000D02*
X34910000Y35560000D01*
X39700000Y35560000D02*
X38750000Y35560000D01*
X34910000Y36480000D02*
X34910000Y34640000D01*
X38750000Y36480000D02*
X34910000Y36480000D01*
G04 #@! TO.C,R16*
X31400000Y43830000D02*
X29560000Y43830000D01*
X31400000Y39990000D02*
X31400000Y43830000D01*
X29560000Y39990000D02*
X31400000Y39990000D01*
X30480000Y44780000D02*
X30480000Y43830000D01*
X29560000Y43830000D02*
X29560000Y39990000D01*
X30480000Y39040000D02*
X30480000Y39990000D01*
G04 #@! TO.C,R18*
X23780000Y28590000D02*
X21940000Y28590000D01*
X21940000Y24750000D02*
X23780000Y24750000D01*
X23780000Y24750000D02*
X23780000Y28590000D01*
X22860000Y23800000D02*
X22860000Y24750000D01*
X22860000Y29540000D02*
X22860000Y28590000D01*
X21940000Y28590000D02*
X21940000Y24750000D01*
G04 #@! TO.C,R15*
X33960000Y40640000D02*
X34910000Y40640000D01*
X39700000Y40640000D02*
X38750000Y40640000D01*
X38750000Y39720000D02*
X38750000Y41560000D01*
X38750000Y41560000D02*
X34910000Y41560000D01*
X34910000Y39720000D02*
X38750000Y39720000D01*
X34910000Y41560000D02*
X34910000Y39720000D01*
G04 #@! TO.C,Q3*
X28630000Y31010000D02*
X28630000Y27410000D01*
X28641522Y27371522D02*
G75*
G03*
X33080000Y29210000I1838478J1838478D01*
G01*
X33080001Y29210000D02*
G75*
G03*
X28641522Y31048478I-2600001J0D01*
G01*
G04 #@! TO.C,D4*
X41010000Y31400000D02*
X37730000Y31400000D01*
X38426000Y31400000D02*
X38426000Y29560000D01*
X36550000Y30480000D02*
X37730000Y30480000D01*
X42190000Y30480000D02*
X41010000Y30480000D01*
X41010000Y29560000D02*
X41010000Y31400000D01*
X38186000Y31400000D02*
X38186000Y29560000D01*
X37730000Y31400000D02*
X37730000Y29560000D01*
X37730000Y29560000D02*
X41010000Y29560000D01*
X38306000Y31400000D02*
X38306000Y29560000D01*
G04 #@! TO.C,R6*
X37450000Y27020000D02*
X41290000Y27020000D01*
X36500000Y27940000D02*
X37450000Y27940000D01*
X42240000Y27940000D02*
X41290000Y27940000D01*
X37450000Y28860000D02*
X37450000Y27020000D01*
X41290000Y28860000D02*
X37450000Y28860000D01*
X41290000Y27020000D02*
X41290000Y28860000D01*
G04 #@! TO.C,Q4*
X23550000Y48790000D02*
X23550000Y45190000D01*
X23561522Y45151522D02*
G75*
G03*
X28000000Y46990000I1838478J1838478D01*
G01*
X28000001Y46990000D02*
G75*
G03*
X23561522Y48828478I-2600001J0D01*
G01*
G04 #@! TO.C,R9*
X39700000Y33020000D02*
X38750000Y33020000D01*
X38750000Y33940000D02*
X34910000Y33940000D01*
X34910000Y32100000D02*
X38750000Y32100000D01*
X38750000Y32100000D02*
X38750000Y33940000D01*
X34910000Y33940000D02*
X34910000Y32100000D01*
X33960000Y33020000D02*
X34910000Y33020000D01*
G04 #@! TO.C,U1*
X39480000Y62290000D02*
X37830000Y62290000D01*
X41970000Y62350000D02*
X31690000Y62350000D01*
X35830000Y62290000D02*
X34180000Y62290000D01*
X39480000Y44390000D02*
X39480000Y62290000D01*
X31690000Y44330000D02*
X41970000Y44330000D01*
X34180000Y62290000D02*
X34180000Y44390000D01*
X31690000Y62350000D02*
X31690000Y44330000D01*
X41970000Y44330000D02*
X41970000Y62350000D01*
X34180000Y44390000D02*
X39480000Y44390000D01*
X35830000Y62290000D02*
G75*
G03*
X37830000Y62290000I1000000J0D01*
G01*
G04 #@! TO.C,J4*
X14520000Y41220000D02*
X14520000Y32780000D01*
X14520000Y32780000D02*
X280000Y32780000D01*
X280000Y40920000D02*
X280000Y41220000D01*
X280000Y32780000D02*
X280000Y34680000D01*
X280000Y41220000D02*
X14520000Y41220000D01*
G04 #@! TO.C,J5*
X280000Y24920000D02*
X280000Y25220000D01*
X14520000Y16780000D02*
X280000Y16780000D01*
X14520000Y25220000D02*
X14520000Y16780000D01*
X280000Y25220000D02*
X14520000Y25220000D01*
X280000Y16780000D02*
X280000Y18680000D01*
G04 #@! TO.C,J6*
X280000Y9020000D02*
X280000Y9320000D01*
X14520000Y9320000D02*
X14520000Y880000D01*
X14520000Y880000D02*
X280000Y880000D01*
X280000Y9320000D02*
X14520000Y9320000D01*
X280000Y880000D02*
X280000Y2780000D01*
G04 #@! TO.C,J3*
X14520000Y57220000D02*
X14520000Y48780000D01*
X280000Y48780000D02*
X280000Y50680000D01*
X14520000Y48780000D02*
X280000Y48780000D01*
X280000Y56920000D02*
X280000Y57220000D01*
X280000Y57220000D02*
X14520000Y57220000D01*
G04 #@! TD*
%LPC*%
D12*
G04 #@! TO.C,RV2*
X5080000Y83500000D03*
X5080000Y86000000D03*
D13*
X5080000Y88500000D03*
G04 #@! TD*
D14*
G04 #@! TO.C,J11*
X10160000Y81280000D03*
D15*
X12700000Y81280000D03*
X15240000Y81280000D03*
X17780000Y81280000D03*
X20320000Y81280000D03*
G04 #@! TD*
D14*
G04 #@! TO.C,J12*
X10160000Y83820000D03*
D15*
X12700000Y83820000D03*
X15240000Y83820000D03*
X17780000Y83820000D03*
X20320000Y83820000D03*
G04 #@! TD*
D14*
G04 #@! TO.C,J13*
X10160000Y86360000D03*
D15*
X12700000Y86360000D03*
X15240000Y86360000D03*
X17780000Y86360000D03*
X20320000Y86360000D03*
G04 #@! TD*
D14*
G04 #@! TO.C,J9*
X10160000Y88900000D03*
D15*
X12700000Y88900000D03*
X15240000Y88900000D03*
X17780000Y88900000D03*
X20320000Y88900000D03*
G04 #@! TD*
D14*
G04 #@! TO.C,J10*
X10160000Y91440000D03*
D15*
X12700000Y91440000D03*
X15240000Y91440000D03*
X17780000Y91440000D03*
X20320000Y91440000D03*
G04 #@! TD*
D16*
G04 #@! TO.C,C1*
X30480000Y53340000D03*
X27980000Y53340000D03*
G04 #@! TD*
D17*
G04 #@! TO.C,C3*
X30480000Y7620000D03*
D16*
X32980000Y7620000D03*
G04 #@! TD*
G04 #@! TO.C,C4*
X43180000Y53380000D03*
X43180000Y55880000D03*
G04 #@! TD*
G04 #@! TO.C,C5*
X20320000Y17820000D03*
X20320000Y20320000D03*
G04 #@! TD*
D17*
G04 #@! TO.C,C7*
X24170000Y7620000D03*
D16*
X26670000Y7620000D03*
G04 #@! TD*
G04 #@! TO.C,C8*
X22860000Y86360000D03*
X22860000Y83860000D03*
G04 #@! TD*
D18*
G04 #@! TO.C,D1*
X25400000Y20320000D03*
D19*
X33020000Y20320000D03*
G04 #@! TD*
D18*
G04 #@! TO.C,D2*
X33020000Y2540000D03*
D19*
X25400000Y2540000D03*
G04 #@! TD*
D18*
G04 #@! TO.C,D3*
X25400000Y22860000D03*
D19*
X25400000Y30480000D03*
G04 #@! TD*
D20*
G04 #@! TO.C,D6*
X2540000Y68580000D03*
D12*
X2540000Y71120000D03*
G04 #@! TD*
D21*
G04 #@! TO.C,J1*
X41392500Y5080000D03*
D22*
X38852500Y5080000D03*
X41392500Y7620000D03*
X38852500Y7620000D03*
X41392500Y10160000D03*
X38852500Y10160000D03*
X41392500Y12700000D03*
X38852500Y12700000D03*
X41392500Y15240000D03*
X38852500Y15240000D03*
G04 #@! TD*
D23*
G04 #@! TO.C,Q2*
X19050000Y34290000D03*
D24*
X17780000Y35560000D03*
X19050000Y36830000D03*
G04 #@! TD*
D25*
G04 #@! TO.C,R1*
X17780000Y12700000D03*
D26*
X17780000Y20320000D03*
G04 #@! TD*
D25*
G04 #@! TO.C,R2*
X10160000Y66040000D03*
D26*
X17780000Y66040000D03*
G04 #@! TD*
D25*
G04 #@! TO.C,R3*
X30480000Y68580000D03*
D26*
X22860000Y68580000D03*
G04 #@! TD*
D25*
G04 #@! TO.C,R4*
X22860000Y55880000D03*
D26*
X30480000Y55880000D03*
G04 #@! TD*
D25*
G04 #@! TO.C,R5*
X25400000Y40640000D03*
D26*
X17780000Y40640000D03*
G04 #@! TD*
D25*
G04 #@! TO.C,R10*
X40640000Y38100000D03*
D26*
X33020000Y38100000D03*
G04 #@! TD*
D25*
G04 #@! TO.C,R11*
X43180000Y66040000D03*
D26*
X43180000Y58420000D03*
G04 #@! TD*
D25*
G04 #@! TO.C,R13*
X30480000Y60960000D03*
D26*
X22860000Y60960000D03*
G04 #@! TD*
D25*
G04 #@! TO.C,R14*
X20320000Y30480000D03*
D26*
X20320000Y22860000D03*
G04 #@! TD*
D25*
G04 #@! TO.C,R20*
X10160000Y68580000D03*
D26*
X17780000Y68580000D03*
G04 #@! TD*
D14*
G04 #@! TO.C,SW1*
X25400000Y95250000D03*
D15*
X27940000Y95250000D03*
G04 #@! TD*
D17*
G04 #@! TO.C,U3*
X25420000Y91460000D03*
D27*
X25420000Y88920000D03*
X25420000Y86380000D03*
X25420000Y83840000D03*
X25420000Y81300000D03*
X25420000Y78760000D03*
X25420000Y76220000D03*
X25420000Y73680000D03*
X33040000Y73680000D03*
X33040000Y76220000D03*
X33040000Y78760000D03*
X33040000Y81300000D03*
X33040000Y83840000D03*
X33040000Y86380000D03*
X33040000Y88920000D03*
X33040000Y91460000D03*
G04 #@! TD*
D28*
G04 #@! TO.C,U4*
X20320000Y45720000D03*
D29*
X16510000Y45720000D03*
X17150000Y55880000D03*
X19680000Y55880000D03*
G04 #@! TD*
D17*
G04 #@! TO.C,C2*
X32980000Y15240000D03*
D16*
X30480000Y15240000D03*
G04 #@! TD*
G04 #@! TO.C,C6*
X20320000Y15240000D03*
X20320000Y12740000D03*
G04 #@! TD*
D23*
G04 #@! TO.C,U2*
X25400000Y12700000D03*
D24*
X24130000Y13970000D03*
X25400000Y15240000D03*
G04 #@! TD*
D30*
G04 #@! TO.C,RV1*
X43180000Y73660000D03*
X40640000Y76200000D03*
X38100000Y73660000D03*
G04 #@! TD*
D23*
G04 #@! TO.C,Q1*
X3810000Y64770000D03*
D24*
X5080000Y63500000D03*
X3810000Y62230000D03*
G04 #@! TD*
D25*
G04 #@! TO.C,R17*
X17780000Y30480000D03*
D26*
X17780000Y22860000D03*
G04 #@! TD*
D25*
G04 #@! TO.C,R12*
X22860000Y66040000D03*
D26*
X30480000Y66040000D03*
G04 #@! TD*
D25*
G04 #@! TO.C,R7*
X22860000Y63500000D03*
D26*
X30480000Y63500000D03*
G04 #@! TD*
D14*
G04 #@! TO.C,J2*
X40640000Y93980000D03*
D15*
X40640000Y91440000D03*
X40640000Y88900000D03*
G04 #@! TD*
D14*
G04 #@! TO.C,J7*
X40640000Y86360000D03*
D15*
X40640000Y83820000D03*
X40640000Y81280000D03*
G04 #@! TD*
D25*
G04 #@! TO.C,R8*
X33020000Y35560000D03*
D26*
X40640000Y35560000D03*
G04 #@! TD*
D25*
G04 #@! TO.C,R16*
X30480000Y38100000D03*
D26*
X30480000Y45720000D03*
G04 #@! TD*
D25*
G04 #@! TO.C,R18*
X22860000Y22860000D03*
D26*
X22860000Y30480000D03*
G04 #@! TD*
D25*
G04 #@! TO.C,R15*
X33020000Y40640000D03*
D26*
X40640000Y40640000D03*
G04 #@! TD*
D23*
G04 #@! TO.C,Q3*
X30480000Y30480000D03*
D24*
X31750000Y29210000D03*
X30480000Y27940000D03*
G04 #@! TD*
D18*
G04 #@! TO.C,D4*
X35560000Y30480000D03*
D19*
X43180000Y30480000D03*
G04 #@! TD*
D25*
G04 #@! TO.C,R6*
X43180000Y27940000D03*
D26*
X35560000Y27940000D03*
G04 #@! TD*
D23*
G04 #@! TO.C,Q4*
X25400000Y48260000D03*
D24*
X26670000Y46990000D03*
X25400000Y45720000D03*
G04 #@! TD*
D25*
G04 #@! TO.C,R9*
X33020000Y33020000D03*
D26*
X40640000Y33020000D03*
G04 #@! TD*
D17*
G04 #@! TO.C,U1*
X33020000Y60960000D03*
D27*
X33020000Y58420000D03*
X33020000Y55880000D03*
X33020000Y53340000D03*
X33020000Y50800000D03*
X33020000Y48260000D03*
X33020000Y45720000D03*
X40640000Y45720000D03*
X40640000Y48260000D03*
X40640000Y50800000D03*
X40640000Y53340000D03*
X40640000Y55880000D03*
X40640000Y58420000D03*
X40640000Y60960000D03*
G04 #@! TD*
D14*
G04 #@! TO.C,J15*
X7620000Y78740000D03*
D15*
X10160000Y78740000D03*
X12700000Y78740000D03*
X15240000Y78740000D03*
X17780000Y78740000D03*
X20320000Y78740000D03*
G04 #@! TD*
D14*
G04 #@! TO.C,J16*
X7620000Y93980000D03*
D15*
X10160000Y93980000D03*
X12700000Y93980000D03*
X15240000Y93980000D03*
X17780000Y93980000D03*
X20320000Y93980000D03*
G04 #@! TD*
D14*
G04 #@! TO.C,J8*
X7620000Y73660000D03*
D15*
X10160000Y73660000D03*
X12700000Y73660000D03*
X15240000Y73660000D03*
X17780000Y73660000D03*
X20320000Y73660000D03*
G04 #@! TD*
D31*
G04 #@! TO.C,J4*
X9500000Y38900000D03*
X7700000Y36900000D03*
X1600000Y36900000D03*
X4000000Y38900000D03*
X13200000Y36900000D03*
G04 #@! TD*
D14*
G04 #@! TO.C,J14*
X7620000Y76200000D03*
D15*
X10160000Y76200000D03*
X12700000Y76200000D03*
X15240000Y76200000D03*
X17780000Y76200000D03*
X20320000Y76200000D03*
G04 #@! TD*
D31*
G04 #@! TO.C,J5*
X9500000Y22900000D03*
X7700000Y20900000D03*
X1600000Y20900000D03*
X4000000Y22900000D03*
X13200000Y20900000D03*
G04 #@! TD*
G04 #@! TO.C,J6*
X9500000Y7000000D03*
X7700000Y5000000D03*
X1600000Y5000000D03*
X4000000Y7000000D03*
X13200000Y5000000D03*
G04 #@! TD*
G04 #@! TO.C,J3*
X9500000Y54900000D03*
X7700000Y52900000D03*
X1600000Y52900000D03*
X4000000Y54900000D03*
X13200000Y52900000D03*
G04 #@! TD*
M02*
