G04 #@! TF.GenerationSoftware,KiCad,Pcbnew,(6.0.9)*
G04 #@! TF.CreationDate,2022-12-25T16:52:33+09:00*
G04 #@! TF.ProjectId,musicboxmod,6d757369-6362-46f7-986d-6f642e6b6963,rev?*
G04 #@! TF.SameCoordinates,PX791ddc0PY791ddc0*
G04 #@! TF.FileFunction,Soldermask,Top*
G04 #@! TF.FilePolarity,Negative*
%FSLAX46Y46*%
G04 Gerber Fmt 4.6, Leading zero omitted, Abs format (unit mm)*
G04 Created by KiCad (PCBNEW (6.0.9)) date 2022-12-25 16:52:33*
%MOMM*%
%LPD*%
G01*
G04 APERTURE LIST*
G04 Aperture macros list*
%AMRoundRect*
0 Rectangle with rounded corners*
0 $1 Rounding radius*
0 $2 $3 $4 $5 $6 $7 $8 $9 X,Y pos of 4 corners*
0 Add a 4 corners polygon primitive as box body*
4,1,4,$2,$3,$4,$5,$6,$7,$8,$9,$2,$3,0*
0 Add four circle primitives for the rounded corners*
1,1,$1+$1,$2,$3*
1,1,$1+$1,$4,$5*
1,1,$1+$1,$6,$7*
1,1,$1+$1,$8,$9*
0 Add four rect primitives between the rounded corners*
20,1,$1+$1,$2,$3,$4,$5,0*
20,1,$1+$1,$4,$5,$6,$7,0*
20,1,$1+$1,$6,$7,$8,$9,0*
20,1,$1+$1,$8,$9,$2,$3,0*%
G04 Aperture macros list end*
%ADD10C,1.800000*%
%ADD11RoundRect,0.450000X0.450000X0.450000X-0.450000X0.450000X-0.450000X-0.450000X0.450000X-0.450000X0*%
%ADD12R,1.700000X1.700000*%
%ADD13O,1.700000X1.700000*%
%ADD14C,1.600000*%
%ADD15R,1.600000X1.600000*%
%ADD16R,1.500000X1.500000*%
%ADD17O,1.500000X1.500000*%
%ADD18R,1.800000X1.800000*%
%ADD19RoundRect,0.250000X0.600000X0.600000X-0.600000X0.600000X-0.600000X-0.600000X0.600000X-0.600000X0*%
%ADD20C,1.700000*%
%ADD21R,1.300000X1.300000*%
%ADD22C,1.300000*%
%ADD23C,1.400000*%
%ADD24O,1.400000X1.400000*%
%ADD25O,1.600000X1.600000*%
%ADD26RoundRect,0.249630X0.535370X-0.895370X0.535370X0.895370X-0.535370X0.895370X-0.535370X-0.895370X0*%
%ADD27O,1.570000X2.290000*%
%ADD28C,1.440000*%
%ADD29O,1.800000X2.800000*%
G04 APERTURE END LIST*
D10*
G04 #@! TO.C,RV2*
X5080000Y83500000D03*
X5080000Y86000000D03*
D11*
X5080000Y88500000D03*
G04 #@! TD*
D12*
G04 #@! TO.C,J11*
X10160000Y81280000D03*
D13*
X12700000Y81280000D03*
X15240000Y81280000D03*
X17780000Y81280000D03*
X20320000Y81280000D03*
G04 #@! TD*
D12*
G04 #@! TO.C,J12*
X10160000Y83820000D03*
D13*
X12700000Y83820000D03*
X15240000Y83820000D03*
X17780000Y83820000D03*
X20320000Y83820000D03*
G04 #@! TD*
D12*
G04 #@! TO.C,J13*
X10160000Y86360000D03*
D13*
X12700000Y86360000D03*
X15240000Y86360000D03*
X17780000Y86360000D03*
X20320000Y86360000D03*
G04 #@! TD*
D12*
G04 #@! TO.C,J9*
X10160000Y88900000D03*
D13*
X12700000Y88900000D03*
X15240000Y88900000D03*
X17780000Y88900000D03*
X20320000Y88900000D03*
G04 #@! TD*
D12*
G04 #@! TO.C,J10*
X10160000Y91440000D03*
D13*
X12700000Y91440000D03*
X15240000Y91440000D03*
X17780000Y91440000D03*
X20320000Y91440000D03*
G04 #@! TD*
D14*
G04 #@! TO.C,C1*
X30480000Y53340000D03*
X27980000Y53340000D03*
G04 #@! TD*
D15*
G04 #@! TO.C,C3*
X30480000Y7620000D03*
D14*
X32980000Y7620000D03*
G04 #@! TD*
G04 #@! TO.C,C4*
X43180000Y53380000D03*
X43180000Y55880000D03*
G04 #@! TD*
G04 #@! TO.C,C5*
X20320000Y17820000D03*
X20320000Y20320000D03*
G04 #@! TD*
D15*
G04 #@! TO.C,C7*
X24170000Y7620000D03*
D14*
X26670000Y7620000D03*
G04 #@! TD*
G04 #@! TO.C,C8*
X22860000Y86360000D03*
X22860000Y83860000D03*
G04 #@! TD*
D16*
G04 #@! TO.C,D1*
X25400000Y20320000D03*
D17*
X33020000Y20320000D03*
G04 #@! TD*
D16*
G04 #@! TO.C,D2*
X33020000Y2540000D03*
D17*
X25400000Y2540000D03*
G04 #@! TD*
D16*
G04 #@! TO.C,D3*
X25400000Y22860000D03*
D17*
X25400000Y30480000D03*
G04 #@! TD*
D18*
G04 #@! TO.C,D6*
X2540000Y68580000D03*
D10*
X2540000Y71120000D03*
G04 #@! TD*
D19*
G04 #@! TO.C,J1*
X41392500Y5080000D03*
D20*
X38852500Y5080000D03*
X41392500Y7620000D03*
X38852500Y7620000D03*
X41392500Y10160000D03*
X38852500Y10160000D03*
X41392500Y12700000D03*
X38852500Y12700000D03*
X41392500Y15240000D03*
X38852500Y15240000D03*
G04 #@! TD*
D21*
G04 #@! TO.C,Q2*
X19050000Y34290000D03*
D22*
X17780000Y35560000D03*
X19050000Y36830000D03*
G04 #@! TD*
D23*
G04 #@! TO.C,R1*
X17780000Y12700000D03*
D24*
X17780000Y20320000D03*
G04 #@! TD*
D23*
G04 #@! TO.C,R2*
X10160000Y66040000D03*
D24*
X17780000Y66040000D03*
G04 #@! TD*
D23*
G04 #@! TO.C,R3*
X30480000Y68580000D03*
D24*
X22860000Y68580000D03*
G04 #@! TD*
D23*
G04 #@! TO.C,R4*
X22860000Y55880000D03*
D24*
X30480000Y55880000D03*
G04 #@! TD*
D23*
G04 #@! TO.C,R5*
X25400000Y40640000D03*
D24*
X17780000Y40640000D03*
G04 #@! TD*
D23*
G04 #@! TO.C,R10*
X40640000Y38100000D03*
D24*
X33020000Y38100000D03*
G04 #@! TD*
D23*
G04 #@! TO.C,R11*
X43180000Y66040000D03*
D24*
X43180000Y58420000D03*
G04 #@! TD*
D23*
G04 #@! TO.C,R13*
X30480000Y60960000D03*
D24*
X22860000Y60960000D03*
G04 #@! TD*
D23*
G04 #@! TO.C,R14*
X20320000Y30480000D03*
D24*
X20320000Y22860000D03*
G04 #@! TD*
D23*
G04 #@! TO.C,R20*
X10160000Y68580000D03*
D24*
X17780000Y68580000D03*
G04 #@! TD*
D12*
G04 #@! TO.C,SW1*
X25400000Y95250000D03*
D13*
X27940000Y95250000D03*
G04 #@! TD*
D15*
G04 #@! TO.C,U3*
X25420000Y91460000D03*
D25*
X25420000Y88920000D03*
X25420000Y86380000D03*
X25420000Y83840000D03*
X25420000Y81300000D03*
X25420000Y78760000D03*
X25420000Y76220000D03*
X25420000Y73680000D03*
X33040000Y73680000D03*
X33040000Y76220000D03*
X33040000Y78760000D03*
X33040000Y81300000D03*
X33040000Y83840000D03*
X33040000Y86380000D03*
X33040000Y88920000D03*
X33040000Y91460000D03*
G04 #@! TD*
D26*
G04 #@! TO.C,U4*
X20320000Y45720000D03*
D27*
X16510000Y45720000D03*
X17150000Y55880000D03*
X19680000Y55880000D03*
G04 #@! TD*
D15*
G04 #@! TO.C,C2*
X32980000Y15240000D03*
D14*
X30480000Y15240000D03*
G04 #@! TD*
G04 #@! TO.C,C6*
X20320000Y15240000D03*
X20320000Y12740000D03*
G04 #@! TD*
D21*
G04 #@! TO.C,U2*
X25400000Y12700000D03*
D22*
X24130000Y13970000D03*
X25400000Y15240000D03*
G04 #@! TD*
D28*
G04 #@! TO.C,RV1*
X43180000Y73660000D03*
X40640000Y76200000D03*
X38100000Y73660000D03*
G04 #@! TD*
D21*
G04 #@! TO.C,Q1*
X3810000Y64770000D03*
D22*
X5080000Y63500000D03*
X3810000Y62230000D03*
G04 #@! TD*
D23*
G04 #@! TO.C,R17*
X17780000Y30480000D03*
D24*
X17780000Y22860000D03*
G04 #@! TD*
D23*
G04 #@! TO.C,R12*
X22860000Y66040000D03*
D24*
X30480000Y66040000D03*
G04 #@! TD*
D23*
G04 #@! TO.C,R7*
X22860000Y63500000D03*
D24*
X30480000Y63500000D03*
G04 #@! TD*
D12*
G04 #@! TO.C,J2*
X40640000Y93980000D03*
D13*
X40640000Y91440000D03*
X40640000Y88900000D03*
G04 #@! TD*
D12*
G04 #@! TO.C,J7*
X40640000Y86360000D03*
D13*
X40640000Y83820000D03*
X40640000Y81280000D03*
G04 #@! TD*
D23*
G04 #@! TO.C,R8*
X33020000Y35560000D03*
D24*
X40640000Y35560000D03*
G04 #@! TD*
D23*
G04 #@! TO.C,R16*
X30480000Y38100000D03*
D24*
X30480000Y45720000D03*
G04 #@! TD*
D23*
G04 #@! TO.C,R18*
X22860000Y22860000D03*
D24*
X22860000Y30480000D03*
G04 #@! TD*
D23*
G04 #@! TO.C,R15*
X33020000Y40640000D03*
D24*
X40640000Y40640000D03*
G04 #@! TD*
D21*
G04 #@! TO.C,Q3*
X30480000Y30480000D03*
D22*
X31750000Y29210000D03*
X30480000Y27940000D03*
G04 #@! TD*
D16*
G04 #@! TO.C,D4*
X35560000Y30480000D03*
D17*
X43180000Y30480000D03*
G04 #@! TD*
D23*
G04 #@! TO.C,R6*
X43180000Y27940000D03*
D24*
X35560000Y27940000D03*
G04 #@! TD*
D21*
G04 #@! TO.C,Q4*
X25400000Y48260000D03*
D22*
X26670000Y46990000D03*
X25400000Y45720000D03*
G04 #@! TD*
D23*
G04 #@! TO.C,R9*
X33020000Y33020000D03*
D24*
X40640000Y33020000D03*
G04 #@! TD*
D15*
G04 #@! TO.C,U1*
X33020000Y60960000D03*
D25*
X33020000Y58420000D03*
X33020000Y55880000D03*
X33020000Y53340000D03*
X33020000Y50800000D03*
X33020000Y48260000D03*
X33020000Y45720000D03*
X40640000Y45720000D03*
X40640000Y48260000D03*
X40640000Y50800000D03*
X40640000Y53340000D03*
X40640000Y55880000D03*
X40640000Y58420000D03*
X40640000Y60960000D03*
G04 #@! TD*
D12*
G04 #@! TO.C,J15*
X7620000Y78740000D03*
D13*
X10160000Y78740000D03*
X12700000Y78740000D03*
X15240000Y78740000D03*
X17780000Y78740000D03*
X20320000Y78740000D03*
G04 #@! TD*
D12*
G04 #@! TO.C,J16*
X7620000Y93980000D03*
D13*
X10160000Y93980000D03*
X12700000Y93980000D03*
X15240000Y93980000D03*
X17780000Y93980000D03*
X20320000Y93980000D03*
G04 #@! TD*
D12*
G04 #@! TO.C,J8*
X7620000Y73660000D03*
D13*
X10160000Y73660000D03*
X12700000Y73660000D03*
X15240000Y73660000D03*
X17780000Y73660000D03*
X20320000Y73660000D03*
G04 #@! TD*
D29*
G04 #@! TO.C,J4*
X9500000Y38900000D03*
X7700000Y36900000D03*
X1600000Y36900000D03*
X4000000Y38900000D03*
X13200000Y36900000D03*
G04 #@! TD*
D12*
G04 #@! TO.C,J14*
X7620000Y76200000D03*
D13*
X10160000Y76200000D03*
X12700000Y76200000D03*
X15240000Y76200000D03*
X17780000Y76200000D03*
X20320000Y76200000D03*
G04 #@! TD*
D29*
G04 #@! TO.C,J5*
X9500000Y22900000D03*
X7700000Y20900000D03*
X1600000Y20900000D03*
X4000000Y22900000D03*
X13200000Y20900000D03*
G04 #@! TD*
G04 #@! TO.C,J6*
X9500000Y7000000D03*
X7700000Y5000000D03*
X1600000Y5000000D03*
X4000000Y7000000D03*
X13200000Y5000000D03*
G04 #@! TD*
G04 #@! TO.C,J3*
X9500000Y54900000D03*
X7700000Y52900000D03*
X1600000Y52900000D03*
X4000000Y54900000D03*
X13200000Y52900000D03*
G04 #@! TD*
M02*
