M48
; DRILL file {KiCad (6.0.9)} date Sun Dec 25 16:52:36 2022
; FORMAT={-:-/ absolute / inch / decimal}
; #@! TF.CreationDate,2022-12-25T16:52:36+09:00
; #@! TF.GenerationSoftware,Kicad,Pcbnew,(6.0.9)
; #@! TF.FileFunction,Plated,1,2,PTH
FMAT,2
INCH
; #@! TA.AperFunction,Plated,PTH,ViaDrill
T1C0.0157
; #@! TA.AperFunction,Plated,PTH,ComponentDrill
T2C0.0276
; #@! TA.AperFunction,Plated,PTH,ComponentDrill
T3C0.0295
; #@! TA.AperFunction,Plated,PTH,ComponentDrill
T4C0.0315
; #@! TA.AperFunction,Plated,PTH,ComponentDrill
T5C0.0319
; #@! TA.AperFunction,Plated,PTH,ComponentDrill
T6C0.0354
; #@! TA.AperFunction,Plated,PTH,ComponentDrill
T7C0.0394
%
G90
G05
T1
X0.3Y1.75
X0.3Y0.6
X0.4Y2.4
X0.45Y0.4
X0.55Y2.65
X0.65Y2.4
X0.95Y1.4
X1.0Y1.05
X1.05Y2.75
X1.05Y2.55
X1.2Y1.35
X1.3Y2.75
X1.35Y0.95
X1.4492Y2.1492
X1.45Y1.5
X1.55Y2.6
X1.55Y0.95
T2
X0.4Y2.7
X0.4Y2.6
X0.7Y2.7
X0.7Y2.6
X0.7Y1.6
X0.7Y1.2
X0.7Y0.9
X0.7Y0.8
X0.7Y0.5
X0.8Y1.2
X0.8Y0.9
X0.9Y2.7
X0.9Y2.6
X0.9Y2.5
X0.9Y2.4
X0.9Y2.2
X0.9Y1.2
X0.9Y0.9
X1.0Y1.6
X1.2Y2.7
X1.2Y2.6
X1.2Y2.5
X1.2Y2.4
X1.2Y2.2
X1.2Y1.8
X1.2Y1.5
X1.3Y1.6
X1.3Y1.5
X1.3Y1.4
X1.3Y1.3
X1.4Y1.1
X1.6Y1.6
X1.6Y1.5
X1.6Y1.4
X1.6Y1.3
X1.7Y2.6
X1.7Y2.3
X1.7Y1.1
T3
X0.15Y2.55
X0.15Y2.45
X0.2Y2.5
X0.7Y1.4
X0.75Y1.45
X0.75Y1.35
X0.95Y0.55
X1.0Y1.9
X1.0Y1.8
X1.0Y1.2
X1.0Y0.9
X1.0Y0.8
X1.0Y0.6
X1.0Y0.5
X1.0Y0.1
X1.05Y1.85
X1.2Y1.2
X1.2Y1.1
X1.25Y1.15
X1.3Y0.8
X1.3Y0.1
X1.4Y1.2
X1.7Y1.2
T4
X0.8Y0.8
X0.8Y0.7016
X0.8Y0.6
X0.8Y0.5016
X0.9Y3.4
X0.9Y3.3016
X0.9516Y0.3
X1.0008Y3.6008
X1.0008Y3.5008
X1.0008Y3.4008
X1.0008Y3.3008
X1.0008Y3.2008
X1.0008Y3.1008
X1.0008Y3.0008
X1.0008Y2.9008
X1.05Y0.3
X1.1016Y2.1
X1.2Y2.1
X1.2Y0.6
X1.2Y0.3
X1.2984Y0.6
X1.2984Y0.3
X1.3Y2.4
X1.3Y2.3
X1.3Y2.2
X1.3Y2.1
X1.3Y2.0
X1.3Y1.9
X1.3Y1.8
X1.3008Y3.6008
X1.3008Y3.5008
X1.3008Y3.4008
X1.3008Y3.3008
X1.3008Y3.2008
X1.3008Y3.1008
X1.3008Y3.0008
X1.3008Y2.9008
X1.5Y2.9
X1.6Y3.0
X1.6Y2.4
X1.6Y2.3
X1.6Y2.2
X1.6Y2.1
X1.6Y2.0
X1.6Y1.9
X1.6Y1.8
X1.7Y2.9
X1.7Y2.2
X1.7Y2.1016
T5
X0.65Y1.8
X0.6752Y2.2
X0.7748Y2.2
X0.8Y1.8
T6
X0.1Y2.8
X0.1Y2.7
T7
X0.2Y3.4843
X0.2Y3.3858
X0.2Y3.2874
X0.3Y3.7
X0.3Y3.1
X0.3Y3.0
X0.3Y2.9
X0.4Y3.7
X0.4Y3.6
X0.4Y3.5
X0.4Y3.4
X0.4Y3.3
X0.4Y3.2
X0.4Y3.1
X0.4Y3.0
X0.4Y2.9
X0.5Y3.7
X0.5Y3.6
X0.5Y3.5
X0.5Y3.4
X0.5Y3.3
X0.5Y3.2
X0.5Y3.1
X0.5Y3.0
X0.5Y2.9
X0.6Y3.7
X0.6Y3.6
X0.6Y3.5
X0.6Y3.4
X0.6Y3.3
X0.6Y3.2
X0.6Y3.1
X0.6Y3.0
X0.6Y2.9
X0.7Y3.7
X0.7Y3.6
X0.7Y3.5
X0.7Y3.4
X0.7Y3.3
X0.7Y3.2
X0.7Y3.1
X0.7Y3.0
X0.7Y2.9
X0.8Y3.7
X0.8Y3.6
X0.8Y3.5
X0.8Y3.4
X0.8Y3.3
X0.8Y3.2
X0.8Y3.1
X0.8Y3.0
X0.8Y2.9
X1.0Y3.75
X1.1Y3.75
X1.5296Y0.6
X1.5296Y0.5
X1.5296Y0.4
X1.5296Y0.3
X1.5296Y0.2
X1.6Y3.7
X1.6Y3.6
X1.6Y3.5
X1.6Y3.4
X1.6Y3.3
X1.6Y3.2
X1.6296Y0.6
X1.6296Y0.5
X1.6296Y0.4
X1.6296Y0.3
X1.6296Y0.2
T7
G00X0.063Y2.063
M15
G01X0.063Y2.1024
M16
G05
G00X0.063Y1.4331
M15
G01X0.063Y1.4724
M16
G05
G00X0.063Y0.8031
M15
G01X0.063Y0.8425
M16
G05
G00X0.063Y0.1772
M15
G01X0.063Y0.2165
M16
G05
G00X0.1575Y2.1417
M15
G01X0.1575Y2.1811
M16
G05
G00X0.1575Y1.5118
M15
G01X0.1575Y1.5512
M16
G05
G00X0.1575Y0.8819
M15
G01X0.1575Y0.9213
M16
G05
G00X0.1575Y0.2559
M15
G01X0.1575Y0.2953
M16
G05
G00X0.3031Y2.063
M15
G01X0.3031Y2.1024
M16
G05
G00X0.3031Y1.4331
M15
G01X0.3031Y1.4724
M16
G05
G00X0.3031Y0.8031
M15
G01X0.3031Y0.8425
M16
G05
G00X0.3031Y0.1772
M15
G01X0.3031Y0.2165
M16
G05
G00X0.374Y2.1417
M15
G01X0.374Y2.1811
M16
G05
G00X0.374Y1.5118
M15
G01X0.374Y1.5512
M16
G05
G00X0.374Y0.8819
M15
G01X0.374Y0.9213
M16
G05
G00X0.374Y0.2559
M15
G01X0.374Y0.2953
M16
G05
G00X0.5197Y2.063
M15
G01X0.5197Y2.1024
M16
G05
G00X0.5197Y1.4331
M15
G01X0.5197Y1.4724
M16
G05
G00X0.5197Y0.8031
M15
G01X0.5197Y0.8425
M16
G05
G00X0.5197Y0.1772
M15
G01X0.5197Y0.2165
M16
G05
T0
M30
